<svg xmlns="http://www.w3.org/2000/svg" viewBox="0 0 107 44.9" style="">
    <defs>
        <style>
            .cls-1,.cls-3{fill:none;stroke-linecap:round;stroke-linejoin:round;stroke-width:2px;}.cls-1{stroke:#f1f3f7;}.cls-2{fill:#f1f3f7;}.cls-3{stroke:#3f55af;}
        </style>
    </defs>
    <title>Digital Property Image Animated</title>
    <g id="Layer_2" data-name="Layer 2">
        <g id="Layer_1-2" data-name="Layer 1">
            <path class="cls-1 GUTNagyJ_0"
                  d="M26.25,19.28L26.25,12.9L29.86,12.9L20.25,5.3L10.64,12.9L14.25,12.9L14.25,19.03"></path>
            <path class="cls-1 GUTNagyJ_1" d="M18,18.91L18,14.9L22,14.9L22,19.28"></path>
            <path class="cls-1 GUTNagyJ_2" d="M45,36.9A3,3 0,1,1 51,36.9A3,3 0,1,1 45,36.9"></path>
            <path class="cls-1 GUTNagyJ_3" d="M45,13.9L56,13.9"></path>
            <path class="cls-1 GUTNagyJ_4" d="M45,20.9L64,20.9"></path>
            <path class="cls-1 GUTNagyJ_5" d="M45,27.9L64,27.9"></path>
            <path class="cls-1 GUTNagyJ_6" d="M56,38.9L64,38.9"></path>
            <path class="cls-2 GUTNagyJ_7"
                  d="M66.9,10.8L62,5.91L62,5.91L62,5.91L40,5.91L40,44.91L69,44.91L69,12.9L66.9,10.8Z"></path>
            <path class="cls-1 GUTNagyJ_8" d="M72,40.06c18.79,3.2,34-6.16,34-6.16"></path>
            <path class="cls-1 GUTNagyJ_9" d="M4,22.9s14.39-4.2,33,1.8"></path>
            <path class="cls-1 GUTNagyJ_10"
                  d="M93,13.9a4,4,0,0,0-2.48.89,5,5,0,0,0-9.38,1,3,3,0,1,0,.51,3.51,5,5,0,0,0,8.09.9A4,4,0,1,0,93,13.9Z"></path>
            <path class="cls-1 GUTNagyJ_11"
                  d="M100.33,17.74A5.52,5.52,0,1,0,96,8a6.88,6.88,0,0,0-13,1.39A4.14,4.14,0,0,0,76,12.29a4.18,4.18,0,0,0,0,.52"></path>
            <path class="cls-1 GUTNagyJ_12" d="M104,13.9"></path>
            <path class="cls-3 GUTNagyJ_13" d="M42,33.9A3,3 0,1,1 48,33.9A3,3 0,1,1 42,33.9"></path>
            <path class="cls-3 GUTNagyJ_14" d="M42,10.9L53,10.9"></path>
            <path class="cls-3 GUTNagyJ_15" d="M42,17.9L61,17.9"></path>
            <path class="cls-3 GUTNagyJ_16" d="M42,24.9L61,24.9"></path>
            <path class="cls-3 GUTNagyJ_17" d="M53,35.9L61,35.9"></path>
            <path class="cls-3 GUTNagyJ_18" d="M66,9.9L59,9.9L59,2.9L66,9.9Z"></path>
            <path class="cls-3 GUTNagyJ_19"
                  d="M66,26.03L66,9.9L63.9,7.8L59,2.9L59,2.9L59,2.9L37,2.9L37,41.91L66,41.91L66,34.16"></path>
            <path class="cls-3 GUTNagyJ_20" d="M66,30.53L66,29.15"></path>
            <path class="cls-3 GUTNagyJ_21" d="M95.63,34.3A45.22,45.22,0,0,0,103,30.9"></path>
            <path class="cls-3 GUTNagyJ_22" d="M69,37.06a51.53,51.53,0,0,0,24-1.88"></path>
            <path class="cls-3 GUTNagyJ_23" d="M1,19.9s14.39-4.2,33,1.8"></path>
            <path class="cls-3 GUTNagyJ_24"
                  d="M90,10.9a4,4,0,0,0-2.48.89,5,5,0,0,0-9.38,1,3,3,0,1,0,.51,3.51,5,5,0,0,0,8.09.9A4,4,0,1,0,90,10.9Z"></path>
            <path class="cls-3 GUTNagyJ_25"
                  d="M102,9.79q0-.25,0-.5A5.49,5.49,0,0,0,93,5a6.88,6.88,0,0,0-13,1.39A4.14,4.14,0,0,0,73,9.29a4.18,4.18,0,0,0,0,.52"></path>
            <path class="cls-3 GUTNagyJ_26" d="M97.33,14.74a5.52,5.52,0,0,0,3.49-2.06"></path>
            <path class="cls-3 GUTNagyJ_27"
                  d="M23.25,16.28L23.25,9.9L26.86,9.9L17.25,2.3L7.64,9.9L11.25,9.9L11.25,16.03"></path>
            <path class="cls-3 GUTNagyJ_28" d="M15,15.9L15,11.9L19,11.9L19,16.28"></path>
        </g>
    </g>
    <style>.GUTNagyJ_0{stroke-dasharray:45 47;stroke-dashoffset:46;animation:GUTNagyJ_draw 2666ms ease-in-out 0ms
        forwards;}.GUTNagyJ_1{stroke-dasharray:13 15;stroke-dashoffset:14;animation:GUTNagyJ_draw 2666ms ease-in-out
        47ms forwards;}.GUTNagyJ_2{stroke-dasharray:19 21;stroke-dashoffset:20;animation:GUTNagyJ_draw 2666ms
        ease-in-out 95ms forwards;}.GUTNagyJ_3{stroke-dasharray:11 13;stroke-dashoffset:12;animation:GUTNagyJ_draw
        2666ms ease-in-out 142ms forwards;}.GUTNagyJ_4{stroke-dasharray:19
        21;stroke-dashoffset:20;animation:GUTNagyJ_draw 2666ms ease-in-out 190ms
        forwards;}.GUTNagyJ_5{stroke-dasharray:19 21;stroke-dashoffset:20;animation:GUTNagyJ_draw 2666ms ease-in-out
        238ms forwards;}.GUTNagyJ_6{stroke-dasharray:8 10;stroke-dashoffset:9;animation:GUTNagyJ_draw 2666ms ease-in-out
        285ms forwards;}.GUTNagyJ_7{stroke-dasharray:132 134;stroke-dashoffset:133;animation:GUTNagyJ_draw 2666ms
        ease-in-out 333ms forwards;}.GUTNagyJ_8{stroke-dasharray:36 38;stroke-dashoffset:37;animation:GUTNagyJ_draw
        2666ms ease-in-out 380ms forwards;}.GUTNagyJ_9{stroke-dasharray:34
        36;stroke-dashoffset:35;animation:GUTNagyJ_draw 2666ms ease-in-out 428ms
        forwards;}.GUTNagyJ_10{stroke-dasharray:56 58;stroke-dashoffset:57;animation:GUTNagyJ_draw 2666ms ease-in-out
        476ms forwards;}.GUTNagyJ_11{stroke-dasharray:48 50;stroke-dashoffset:49;animation:GUTNagyJ_draw 2666ms
        ease-in-out 523ms forwards;}.GUTNagyJ_12{stroke-dasharray:0 2;stroke-dashoffset:1;animation:GUTNagyJ_draw 2666ms
        ease-in-out 571ms forwards;}.GUTNagyJ_13{stroke-dasharray:19 21;stroke-dashoffset:20;animation:GUTNagyJ_draw
        2666ms ease-in-out 619ms forwards;}.GUTNagyJ_14{stroke-dasharray:11
        13;stroke-dashoffset:12;animation:GUTNagyJ_draw 2666ms ease-in-out 666ms
        forwards;}.GUTNagyJ_15{stroke-dasharray:19 21;stroke-dashoffset:20;animation:GUTNagyJ_draw 2666ms ease-in-out
        714ms forwards;}.GUTNagyJ_16{stroke-dasharray:19 21;stroke-dashoffset:20;animation:GUTNagyJ_draw 2666ms
        ease-in-out 761ms forwards;}.GUTNagyJ_17{stroke-dasharray:8 10;stroke-dashoffset:9;animation:GUTNagyJ_draw
        2666ms ease-in-out 809ms forwards;}.GUTNagyJ_18{stroke-dasharray:24
        26;stroke-dashoffset:25;animation:GUTNagyJ_draw 2666ms ease-in-out 857ms
        forwards;}.GUTNagyJ_19{stroke-dasharray:124 126;stroke-dashoffset:125;animation:GUTNagyJ_draw 2666ms ease-in-out
        904ms forwards;}.GUTNagyJ_20{stroke-dasharray:2 4;stroke-dashoffset:3;animation:GUTNagyJ_draw 2666ms ease-in-out
        952ms forwards;}.GUTNagyJ_21{stroke-dasharray:9 11;stroke-dashoffset:10;animation:GUTNagyJ_draw 2666ms
        ease-in-out 999ms forwards;}.GUTNagyJ_22{stroke-dasharray:25 27;stroke-dashoffset:26;animation:GUTNagyJ_draw
        2666ms ease-in-out 1047ms forwards;}.GUTNagyJ_23{stroke-dasharray:34
        36;stroke-dashoffset:35;animation:GUTNagyJ_draw 2666ms ease-in-out 1095ms
        forwards;}.GUTNagyJ_24{stroke-dasharray:56 58;stroke-dashoffset:57;animation:GUTNagyJ_draw 2666ms ease-in-out
        1142ms forwards;}.GUTNagyJ_25{stroke-dasharray:41 43;stroke-dashoffset:42;animation:GUTNagyJ_draw 2666ms
        ease-in-out 1190ms forwards;}.GUTNagyJ_26{stroke-dasharray:5 7;stroke-dashoffset:6;animation:GUTNagyJ_draw
        2666ms ease-in-out 1238ms forwards;}.GUTNagyJ_27{stroke-dasharray:45
        47;stroke-dashoffset:46;animation:GUTNagyJ_draw 2666ms ease-in-out 1285ms
        forwards;}.GUTNagyJ_28{stroke-dasharray:13 15;stroke-dashoffset:14;animation:GUTNagyJ_draw 2666ms ease-in-out
        1333ms forwards;}@keyframes GUTNagyJ_draw{100%{stroke-dashoffset:0;}}@keyframes
        GUTNagyJ_fade{0%{stroke-opacity:1;}95.1219512195122%{stroke-opacity:1;}100%{stroke-opacity:0;}}
    </style>
</svg>