<svg xmlns="http://www.w3.org/2000/svg" viewBox="0 0 87 40.31" style="">
    <defs>
        <style>
            .cls-1{fill:#f1f3f7;stroke:#f1f3f7;stroke-miterlimit:10;}.cls-1,.cls-2{stroke-linecap:round;stroke-width:2px;}.cls-2{fill:none;stroke:#3f55af;stroke-linejoin:round;}
        </style>
    </defs>
    <title>Animal Tracking Image Animated</title>
    <g id="Layer_2" data-name="Layer 2">
        <g id="Layer_1-2" data-name="Layer 1">
            <path class="cls-1 vmWbYkYA_0"
                  d="M57.26,18.81a6.83,6.83,0,0,0-3.78-6.11,4.95,4.95,0,0,0-9.75-.59,6.16,6.16,0,0,0-9.53,2.31A7.44,7.44,0,0,0,21.71,22a6.2,6.2,0,0,0,8.22,8.06,6.12,6.12,0,0,0,6.21-.75,6.15,6.15,0,0,0,9.77.2,5.52,5.52,0,0,0,8.77-5.39A6.82,6.82,0,0,0,57.26,18.81Z"></path>
            <path class="cls-1 vmWbYkYA_1" d="M27.45,30.61L27.45,38.07"></path>
            <path class="cls-1 vmWbYkYA_2" d="M33.66,30.61L33.66,39.31"></path>
            <path class="cls-1 vmWbYkYA_3" d="M44.84,30.61L44.84,38.07"></path>
            <path class="cls-1 vmWbYkYA_4" d="M51.05,30.61L51.05,39.31"></path>
            <path class="cls-1 vmWbYkYA_5" transform="translate(31.19 63.18) rotate(-73.24)"
                  d="M55.36,10.61A2.74,6.01 0,1,1 60.84,10.61A2.74,6.01 0,1,1 55.36,10.61"></path>
            <path class="cls-1 vmWbYkYA_6" d="M51.88,5a1.89,1.89,0,0,0,1,3.13,1.89,1.89,0,0,0-1-3.13Z"></path>
            <path class="cls-1 vmWbYkYA_7" d="M56.14,5a1.89,1.89,0,0,0-.06,3.29A1.89,1.89,0,0,0,56.14,5Z"></path>
            <path class="cls-1 vmWbYkYA_8" d="M54.5,38.47L86,38.47"></path>
            <path class="cls-1 vmWbYkYA_9" d="M36.5,38.47L42,38.47"></path>
            <path class="cls-1 vmWbYkYA_10" d="M4,38.47L23.83,38.47"></path>
            <path class="cls-2 vmWbYkYA_11"
                  d="M54.29,15.84a6.83,6.83,0,0,0-3.78-6.11,4.95,4.95,0,0,0-9.75-.59,6.16,6.16,0,0,0-9.53,2.31,7.44,7.44,0,0,0-12.49,7.6A6.2,6.2,0,0,0,27,27.12a6.12,6.12,0,0,0,6.21-.75,6.15,6.15,0,0,0,9.77.2,5.52,5.52,0,0,0,8.77-5.39A6.82,6.82,0,0,0,54.29,15.84Z"></path>
            <path class="cls-2 vmWbYkYA_12" d="M24.48,27.64L24.48,35.1"></path>
            <path class="cls-2 vmWbYkYA_13" d="M30.69,27.64L30.69,36.34"></path>
            <path class="cls-2 vmWbYkYA_14" d="M41.87,27.64L41.87,35.1"></path>
            <path class="cls-2 vmWbYkYA_15" d="M48.08,27.64L48.08,36.34"></path>
            <path class="cls-2 vmWbYkYA_16" transform="translate(31.92 58.22) rotate(-73.24)"
                  d="M52.39,7.64A2.74,6.01 0,1,1 57.870000000000005,7.64A2.74,6.01 0,1,1 52.39,7.64"></path>
            <path class="cls-2 vmWbYkYA_17" d="M48.91,1.08a1.89,1.89,0,0,0,1,3.13,1.89,1.89,0,0,0-1-3.13Z"></path>
            <path class="cls-2 vmWbYkYA_18" d="M53.17,1a1.89,1.89,0,0,0-.06,3.29A1.89,1.89,0,0,0,53.17,1Z"></path>
            <path class="cls-2 vmWbYkYA_19" d="M74,35.47L83,35.47"></path>
            <path class="cls-2 vmWbYkYA_20" d="M69.25,35.47L71.08,35.47"></path>
            <path class="cls-2 vmWbYkYA_21" d="M51.5,35.47L66.58,35.47"></path>
            <path class="cls-2 vmWbYkYA_22" d="M33.5,35.47L39,35.47"></path>
            <path class="cls-2 vmWbYkYA_23" d="M1,35.47L20.83,35.47"></path>
        </g>
    </g>
    <style>.vmWbYkYA_0{stroke-dasharray:106 108;stroke-dashoffset:107;animation:vmWbYkYA_draw 2666ms ease-in-out 0ms
        forwards;}.vmWbYkYA_1{stroke-dasharray:8 10;stroke-dashoffset:9;animation:vmWbYkYA_draw 2666ms ease-in-out 57ms
        forwards;}.vmWbYkYA_2{stroke-dasharray:9 11;stroke-dashoffset:10;animation:vmWbYkYA_draw 2666ms ease-in-out
        115ms forwards;}.vmWbYkYA_3{stroke-dasharray:8 10;stroke-dashoffset:9;animation:vmWbYkYA_draw 2666ms ease-in-out
        173ms forwards;}.vmWbYkYA_4{stroke-dasharray:9 11;stroke-dashoffset:10;animation:vmWbYkYA_draw 2666ms
        ease-in-out 231ms forwards;}.vmWbYkYA_5{stroke-dasharray:29 31;stroke-dashoffset:30;animation:vmWbYkYA_draw
        2666ms ease-in-out 289ms forwards;}.vmWbYkYA_6{stroke-dasharray:8 10;stroke-dashoffset:9;animation:vmWbYkYA_draw
        2666ms ease-in-out 347ms forwards;}.vmWbYkYA_7{stroke-dasharray:8 10;stroke-dashoffset:9;animation:vmWbYkYA_draw
        2666ms ease-in-out 405ms forwards;}.vmWbYkYA_8{stroke-dasharray:32
        34;stroke-dashoffset:33;animation:vmWbYkYA_draw 2666ms ease-in-out 463ms
        forwards;}.vmWbYkYA_9{stroke-dasharray:6 8;stroke-dashoffset:7;animation:vmWbYkYA_draw 2666ms ease-in-out 521ms
        forwards;}.vmWbYkYA_10{stroke-dasharray:20 22;stroke-dashoffset:21;animation:vmWbYkYA_draw 2666ms ease-in-out
        579ms forwards;}.vmWbYkYA_11{stroke-dasharray:106 108;stroke-dashoffset:107;animation:vmWbYkYA_draw 2666ms
        ease-in-out 637ms forwards;}.vmWbYkYA_12{stroke-dasharray:8 10;stroke-dashoffset:9;animation:vmWbYkYA_draw
        2666ms ease-in-out 695ms forwards;}.vmWbYkYA_13{stroke-dasharray:9
        11;stroke-dashoffset:10;animation:vmWbYkYA_draw 2666ms ease-in-out 753ms
        forwards;}.vmWbYkYA_14{stroke-dasharray:8 10;stroke-dashoffset:9;animation:vmWbYkYA_draw 2666ms ease-in-out
        811ms forwards;}.vmWbYkYA_15{stroke-dasharray:9 11;stroke-dashoffset:10;animation:vmWbYkYA_draw 2666ms
        ease-in-out 869ms forwards;}.vmWbYkYA_16{stroke-dasharray:29 31;stroke-dashoffset:30;animation:vmWbYkYA_draw
        2666ms ease-in-out 927ms forwards;}.vmWbYkYA_17{stroke-dasharray:8
        10;stroke-dashoffset:9;animation:vmWbYkYA_draw 2666ms ease-in-out 985ms
        forwards;}.vmWbYkYA_18{stroke-dasharray:8 10;stroke-dashoffset:9;animation:vmWbYkYA_draw 2666ms ease-in-out
        1043ms forwards;}.vmWbYkYA_19{stroke-dasharray:9 11;stroke-dashoffset:10;animation:vmWbYkYA_draw 2666ms
        ease-in-out 1101ms forwards;}.vmWbYkYA_20{stroke-dasharray:2 4;stroke-dashoffset:3;animation:vmWbYkYA_draw
        2666ms ease-in-out 1159ms forwards;}.vmWbYkYA_21{stroke-dasharray:16
        18;stroke-dashoffset:17;animation:vmWbYkYA_draw 2666ms ease-in-out 1217ms
        forwards;}.vmWbYkYA_22{stroke-dasharray:6 8;stroke-dashoffset:7;animation:vmWbYkYA_draw 2666ms ease-in-out
        1275ms forwards;}.vmWbYkYA_23{stroke-dasharray:20 22;stroke-dashoffset:21;animation:vmWbYkYA_draw 2666ms
        ease-in-out 1333ms forwards;}@keyframes vmWbYkYA_draw{100%{stroke-dashoffset:0;}}@keyframes
        vmWbYkYA_fade{0%{stroke-opacity:1;}95.1219512195122%{stroke-opacity:1;}100%{stroke-opacity:0;}}
    </style>
</svg>