<svg xmlns="http://www.w3.org/2000/svg" viewBox="0 0 87 40.31">
    <defs>
        <style>
            .cls-1{fill:#f1f3f7;stroke:#f1f3f7;stroke-miterlimit:10;}.cls-1,.cls-2{stroke-linecap:round;stroke-width:2px;}.cls-2{fill:none;stroke:#3f55af;stroke-linejoin:round;}
        </style>
    </defs>
    <title>Animal Tracking Image</title>
    <g id="Layer_2" data-name="Layer 2">
        <g id="Layer_1-2" data-name="Layer 1">
            <path class="cls-1"
                  d="M57.26,18.81a6.83,6.83,0,0,0-3.78-6.11,4.95,4.95,0,0,0-9.75-.59,6.16,6.16,0,0,0-9.53,2.31A7.44,7.44,0,0,0,21.71,22a6.2,6.2,0,0,0,8.22,8.06,6.12,6.12,0,0,0,6.21-.75,6.15,6.15,0,0,0,9.77.2,5.52,5.52,0,0,0,8.77-5.39A6.82,6.82,0,0,0,57.26,18.81Z"/>
            <line class="cls-1" x1="27.45" y1="30.61" x2="27.45" y2="38.07"/>
            <line class="cls-1" x1="33.66" y1="30.61" x2="33.66" y2="39.31"/>
            <line class="cls-1" x1="44.84" y1="30.61" x2="44.84" y2="38.07"/>
            <line class="cls-1" x1="51.05" y1="30.61" x2="51.05" y2="39.31"/>
            <ellipse class="cls-1" cx="58.1" cy="10.61" rx="2.74" ry="6.01"
                     transform="translate(31.19 63.18) rotate(-73.24)"/>
            <path class="cls-1" d="M51.88,5a1.89,1.89,0,0,0,1,3.13,1.89,1.89,0,0,0-1-3.13Z"/>
            <path class="cls-1" d="M56.14,5a1.89,1.89,0,0,0-.06,3.29A1.89,1.89,0,0,0,56.14,5Z"/>
            <line class="cls-1" x1="54.5" y1="38.47" x2="86" y2="38.47"/>
            <line class="cls-1" x1="36.5" y1="38.47" x2="42" y2="38.47"/>
            <line class="cls-1" x1="4" y1="38.47" x2="23.83" y2="38.47"/>
            <path class="cls-2"
                  d="M54.29,15.84a6.83,6.83,0,0,0-3.78-6.11,4.95,4.95,0,0,0-9.75-.59,6.16,6.16,0,0,0-9.53,2.31,7.44,7.44,0,0,0-12.49,7.6A6.2,6.2,0,0,0,27,27.12a6.12,6.12,0,0,0,6.21-.75,6.15,6.15,0,0,0,9.77.2,5.52,5.52,0,0,0,8.77-5.39A6.82,6.82,0,0,0,54.29,15.84Z"/>
            <line class="cls-2" x1="24.48" y1="27.64" x2="24.48" y2="35.1"/>
            <line class="cls-2" x1="30.69" y1="27.64" x2="30.69" y2="36.34"/>
            <line class="cls-2" x1="41.87" y1="27.64" x2="41.87" y2="35.1"/>
            <line class="cls-2" x1="48.08" y1="27.64" x2="48.08" y2="36.34"/>
            <ellipse class="cls-2" cx="55.13" cy="7.64" rx="2.74" ry="6.01"
                     transform="translate(31.92 58.22) rotate(-73.24)"/>
            <path class="cls-2" d="M48.91,1.08a1.89,1.89,0,0,0,1,3.13,1.89,1.89,0,0,0-1-3.13Z"/>
            <path class="cls-2" d="M53.17,1a1.89,1.89,0,0,0-.06,3.29A1.89,1.89,0,0,0,53.17,1Z"/>
            <line class="cls-2" x1="74" y1="35.47" x2="83" y2="35.47"/>
            <line class="cls-2" x1="69.25" y1="35.47" x2="71.08" y2="35.47"/>
            <line class="cls-2" x1="51.5" y1="35.47" x2="66.58" y2="35.47"/>
            <line class="cls-2" x1="33.5" y1="35.47" x2="39" y2="35.47"/>
            <line class="cls-2" x1="1" y1="35.47" x2="20.83" y2="35.47"/>
        </g>
    </g>
</svg>