<svg xmlns="http://www.w3.org/2000/svg" viewBox="0 0 106.24 76.13"><defs><style>.cls-1,.cls-2{fill:#f1f4f9;}.cls-2,.cls-5,.cls-6{fill-rule:evenodd;}.cls-3,.cls-4,.cls-5,.cls-6,.cls-7,.cls-8,.cls-9{fill:none;}.cls-3,.cls-4{stroke:#4259a4;}.cls-10,.cls-3,.cls-4,.cls-5,.cls-6,.cls-9{stroke-linecap:round;}.cls-3,.cls-4,.cls-5,.cls-7,.cls-8{stroke-miterlimit:10;}.cls-10,.cls-3,.cls-5,.cls-6,.cls-7,.cls-9{stroke-width:1.5px;}.cls-4{stroke-width:2px;}.cls-10,.cls-5,.cls-7,.cls-8{stroke:#4158a4;}.cls-6,.cls-9{stroke:#4256a5;}.cls-10,.cls-6,.cls-9{stroke-linejoin:round;}.cls-10{fill:#4158a4;}</style></defs><title>Asset 17</title><g id="Layer_2" data-name="Layer 2"><g id="Layer_1-2" data-name="Layer 1"><path class="cls-1" d="M74.57,72.64c1.81.08-30,.05-41.79.21"/><path class="cls-1" d="M21.67,71.42a24.74,24.74,0,0,1-8.8-1.31c-1.28-.44-1-3.06-.9-5.19,0-1.2,1.6-1.31,1.56-2.42-.07-2.06-1.33-4.64.17-5.21s4.52-.1,7.79-1c6-1.74,9-4.79,13.86-5.33,15.66-1.73,20.2.09,22.17.85,5.17,2,6.72,4.58,11.37,6.11,2,.67,4.38.41,7.05.57,7,.42,16.53,1.71,15.82,8C91.58,68,92,69.51,91,71s-4.56,1.82-5.9,1.81"/><circle class="cls-1" cx="27.69" cy="70.5" r="5.58"/><circle class="cls-1" cx="80.2" cy="70.34" r="5.58"/><path class="cls-2" d="M8.5,17.38,8.62,6.79A2.76,2.76,0,0,1,11.38,4H30.79a2.76,2.76,0,0,1,2.76,2.76v1"/><path class="cls-2" d="M33.55,7.13V43.54a2.75,2.75,0,0,1-2.76,2.73H11.38a2.75,2.75,0,0,1-2.76-2.73V16.31"/><path class="cls-3" d="M73.9,71c1.81.08-30,.05-41.79.21"/><path class="cls-3" d="M21,69.75a24.74,24.74,0,0,1-8.8-1.31c-1.28-.44-1-3.06-.9-5.19,0-1.2,1.6-1.31,1.56-2.42-.07-2.06-1.33-4.64.17-5.21s4.52-.1,7.79-1c6-1.74,9-4.79,13.86-5.33,15.66-1.73,20.2.09,22.17.85,5.17,2,6.72,4.58,11.37,6.11,2,.67,4.38.41,7.05.57,7,.42,16.53,1.71,15.82,8-.18,1.56.29,3.09-.71,4.62s-4.56,1.82-5.9,1.81"/><circle class="cls-3" cx="27.03" cy="68.83" r="5.58"/><circle class="cls-3" cx="79.53" cy="68.67" r="5.58"/><ellipse class="cls-3" cx="27.03" cy="68.83" rx="2.5" ry="2.45"/><ellipse class="cls-3" cx="79.65" cy="68.83" rx="2.5" ry="2.45"/><line class="cls-4" x1="67.87" y1="66.49" x2="70.23" y2="66.49"/><path class="cls-3" d="M67.87,66.49"/><line class="cls-3" x1="37.75" y1="66.46" x2="64.57" y2="66.51"/><path class="cls-3" d="M51.55,58.82c-1.86-.08-2.91-6.18-1.71-6.32,2.34-.28,8.31,1.07,13.22,4.48.23.16.33,2.2-.28,2.2C57.72,59.23,55.94,59,51.55,58.82Z"/><path class="cls-3" d="M27.38,54.7c4.76-2.34,10.23-2.49,15.78-2.63a2.19,2.19,0,0,1,2.13,1.85c.35,4.27-1.21,4.63-1.56,4.62-7-.15-11.62.67-15.56-.14C27.16,58.19,25.76,55.5,27.38,54.7Z"/><line class="cls-3" x1="49.29" y1="61.87" x2="52.27" y2="61.9"/><line class="cls-3" x1="42.44" y1="61.84" x2="45.42" y2="61.87"/><path class="cls-5" d="M5.81,9.12V3.51A2.76,2.76,0,0,1,8.57.75H28a2.76,2.76,0,0,1,2.76,2.76v1"/><path class="cls-5" d="M30.74,24.94V40.37A2.7,2.7,0,0,1,28,43H8.57a2.7,2.7,0,0,1-2.76-2.63V14.13"/><path class="cls-6" d="M23.46,18.87V8.95a1.45,1.45,0,0,1,1.29-1.57H42.58a1.45,1.45,0,0,1,1.29,1.57v10.5A1.45,1.45,0,0,1,42.58,21H27.68"/><line class="cls-7" x1="6.2" y1="35.96" x2="30.02" y2="35.96"/><circle class="cls-8" cx="18.28" cy="39.43" r="1.05"/><line class="cls-9" x1="27.34" y1="21.02" x2="24.24" y2="24.72"/><line class="cls-9" x1="27.2" y1="12.5" x2="40.14" y2="12.5"/><line class="cls-9" x1="27.2" y1="15.88" x2="40.14" y2="15.88"/><line class="cls-10" x1="100.96" y1="75.38" x2="105.49" y2="75.38"/><line class="cls-10" x1="0.75" y1="75.38" x2="97.24" y2="75.38"/></g></g></svg>