<svg xmlns="http://www.w3.org/2000/svg" viewBox="0 0 111 34.41">
    <defs>
        <style>
            .cls-1{fill:#f1f3f7;}.cls-2,.cls-3{fill:none;stroke-linecap:round;stroke-linejoin:round;stroke-width:2px;}.cls-2{stroke:#f1f3f7;}.cls-3{stroke:#3f55af;}
        </style>
    </defs>
    <title>Vehicle Lifecycle Image</title>
    <g id="Layer_2" data-name="Layer 2">
        <g id="Layer_1-2" data-name="Layer 1">
            <path class="cls-1"
                  d="M23.73,28.07l-7.82-2.61V20.25h2.61V11.13l10.42-1.3S52.39-5.81,74.55,13.74c0,0,18.24-2.61,23.45,7.82v6.52l-7.82,1.3"/>
            <circle class="cls-1" cx="82.36" cy="26.77" r="6.52"/>
            <circle class="cls-1" cx="82.36" cy="26.77" r="2.61"/>
            <circle class="cls-1" cx="31.55" cy="26.77" r="2.61"/>
            <circle class="cls-1" cx="31.55" cy="26.77" r="6.52"/>
            <line class="cls-1" x1="37.73" y1="29.54" x2="75.85" y2="29.54"/>
            <path class="cls-1" d="M31.55,15C51.09-1.9,69.33,15,69.33,15"/>
            <line class="cls-1" x1="31.55" y1="15.04" x2="69.33" y2="15.04"/>
            <line class="cls-1" x1="49.79" y1="8.53" x2="49.79" y2="24.16"/>
            <line class="cls-1" x1="37.65" y1="24.49" x2="75.85" y2="24.49"/>
            <line class="cls-1" x1="53.7" y1="18.95" x2="56.3" y2="18.95"/>
            <line class="cls-1" x1="43.27" y1="18.95" x2="45.88" y2="18.95"/>
            <polyline class="cls-1" points="19.82 13.74 21.12 13.74 21.12 17.65 19.74 17.75"/>
            <polyline class="cls-1" points="92.79 17.65 92.79 21.56 97.14 21.71"/>
            <line class="cls-2" x1="4" y1="33.41" x2="110" y2="33.41"/>
            <line class="cls-3" x1="92.67" y1="25.57" x2="87.27" y2="26.47"/>
            <path class="cls-3"
                  d="M20.82,25.16,13,22.56V17.35h2.61V8.22L26,6.92S49.48-8.71,71.64,10.83c0,0,18.24-2.61,23.45,7.82v5"/>
            <circle class="cls-3" cx="79.45" cy="23.86" r="6.52"/>
            <circle class="cls-3" cx="79.45" cy="23.86" r="2.61"/>
            <circle class="cls-3" cx="28.64" cy="23.86" r="2.61"/>
            <circle class="cls-3" cx="28.64" cy="23.86" r="6.52"/>
            <line class="cls-3" x1="66.75" y1="26.63" x2="72.94" y2="26.63"/>
            <line class="cls-3" x1="62.62" y1="26.63" x2="63.87" y2="26.63"/>
            <line class="cls-3" x1="34.83" y1="26.63" x2="59.37" y2="26.63"/>
            <path class="cls-3" d="M28.64,12.13c19.55-16.94,37.79,0,37.79,0"/>
            <line class="cls-3" x1="59.88" y1="12.13" x2="66.42" y2="12.13"/>
            <line class="cls-3" x1="28.64" y1="12.13" x2="56.75" y2="12.13"/>
            <line class="cls-3" x1="46.88" y1="5.62" x2="46.88" y2="21.25"/>
            <line class="cls-3" x1="34.74" y1="21.58" x2="72.94" y2="21.58"/>
            <line class="cls-3" x1="50.79" y1="16.04" x2="53.39" y2="16.04"/>
            <line class="cls-3" x1="40.36" y1="16.04" x2="42.97" y2="16.04"/>
            <polyline class="cls-3" points="16.91 10.83 18.21 10.83 18.21 14.74 16.83 14.85"/>
            <polyline class="cls-3" points="89.88 14.74 89.88 18.65 94.23 18.8"/>
            <line class="cls-3" x1="102.38" y1="30.41" x2="107" y2="30.41"/>
            <line class="cls-3" x1="1" y1="30.41" x2="98.37" y2="30.41"/>
        </g>
    </g>
</svg>