<svg xmlns="http://www.w3.org/2000/svg" viewBox="0 0 109.8 77.72" style=""><defs><style>.cls-1{fill:#f0f2f6;}.cls-2{fill:#f1f4f9;}.cls-3{fill:#4158a4;}.cls-3,.cls-4,.cls-5{stroke:#4158a4;}.cls-3,.cls-4,.cls-6{stroke-linecap:round;}.cls-3,.cls-4{stroke-linejoin:round;}.cls-3,.cls-4,.cls-5,.cls-6{stroke-width:1.5px;}.cls-4,.cls-5,.cls-6{fill:none;}.cls-5,.cls-6{stroke-miterlimit:10;}.cls-6{stroke:#4259a4;}</style></defs><title>Asset 16</title><g id="Layer_2" data-name="Layer 2"><g id="Layer_1-2" data-name="Layer 1"><path class="cls-1 PkkkHbaG_0" d="M69.17,71.95c-6.58,0-24.8-.14-34,0"></path><path class="cls-1 PkkkHbaG_1" d="M71.52,71.93c.39,0-.54,0-2.35,0"></path><path class="cls-1 PkkkHbaG_2" d="M23.52,71.49a81.76,81.76,0,0,1-9-.31c-1.35-.1-.31-4.28.5-6,1-2.16,5.12-6.3,10.12-8.38,5.88-2.44,3.75-8.56,9.31-9.44,15.56-2.45,23-.76,24.94.13,3.38,1.56,3.88,3.44,6.94,7.75,1.24,1.74,8.06.06,14.25.69,5.54.56,6.06.38,7.06,7.38.22,1.56.56,4.72-.44,6.25s-2.29,2.76-3.62,2.75"></path><path class="cls-1 PkkkHbaG_3" d="M23.799999999999997,72.06A5.58,5.58 0,1,1 34.96,72.06A5.58,5.58 0,1,1 23.799999999999997,72.06"></path><path class="cls-1 PkkkHbaG_4" d="M72.05,72.02A5.58,5.58 0,1,1 83.21,72.02A5.58,5.58 0,1,1 72.05,72.02"></path><path class="cls-1 PkkkHbaG_5" d="M50.27,56.65c-.89-.11-1.37-7.84-.16-7.87,5.84-.19,8.3.05,12.22,4.41,1,1.06,1.92,3.34,1.31,3.44A35.46,35.46,0,0,1,50.27,56.65Z"></path><path class="cls-1 PkkkHbaG_6" d="M33.46,51.43c2.13-1.44,6.44-2.37,12.63-2.75,1-.06.8,2.42.88,3.38.35,4.27-.12,4.78-.47,4.77-9.12-.19-12.81.43-15.56-.14C29.93,56.48,32,52.45,33.46,51.43Z"></path><path class="cls-1 PkkkHbaG_7" d="M49.63,60.72L52.61,60.74"></path><path class="cls-1 PkkkHbaG_8" d="M42.77,60.69L45.75,60.72"></path><path class="cls-1 PkkkHbaG_9" d="M69.29,71.29a8.19,8.19,0,0,1,16.34-.72"></path><path class="cls-1 PkkkHbaG_10" d="M21.22,70.65A8.19,8.19,0,0,1,37.58,71"></path><path class="cls-1 PkkkHbaG_11" width="22.77" height="5.84" transform="translate(-3.81 25.17) rotate(-25)" d="M43.48 18.27 L66.25 18.27 L66.25 24.11 L43.48 24.11 Z"></path><path class="cls-1 PkkkHbaG_12" width="9" height="14.94" transform="translate(0.39 30.65) rotate(-25)" d="M64.82 6.98 L73.82 6.98 L73.82 21.92 L64.82 21.92 Z"></path><path class="cls-1 PkkkHbaG_13" width="9" height="3.85" transform="translate(3.87 27.98) rotate(-25)" d="M60.54 3.33 L69.53999999999999 3.33 L69.53999999999999 7.18 L60.54 7.18 Z"></path><path class="cls-1 PkkkHbaG_14" width="9" height="3.85" transform="translate(-3 33.25) rotate(-25)" d="M68.99 21.46 L77.99 21.46 L77.99 25.310000000000002 L68.99 25.310000000000002 Z"></path><path class="cls-2 PkkkHbaG_15" d="M91.94,33.84L99.36,26.57"></path><path class="cls-2 PkkkHbaG_16" d="M105.66,41.47L109.8,41.47"></path><path class="cls-2 PkkkHbaG_17" d="M93.05,41.47L101.7,41.47"></path><path class="cls-2 PkkkHbaG_18" width="20.5" height="3.26" d="M65.42 39.21 L85.92 39.21 L85.92 42.47 L65.42 42.47 Z"></path><path class="cls-3 PkkkHbaG_19" d="M100.96,76.89L105.49,76.89"></path><path class="cls-3 PkkkHbaG_20" d="M0.75,76.89L97.24,76.89"></path><path class="cls-4 PkkkHbaG_21" d="M90.77,31.5L98.19,24.23"></path><path class="cls-4 PkkkHbaG_22" d="M104.49,39.14L108.63,39.14"></path><path class="cls-4 PkkkHbaG_23" d="M91.88,39.14L100.53,39.14"></path><path class="cls-4 PkkkHbaG_24" d="M93.75,49.39L96.94,53.05"></path><path class="cls-4 PkkkHbaG_25" d="M90.77,46.41L91.38,47.02"></path><path class="cls-4 PkkkHbaG_26" width="20.5" height="3.26" d="M64.25 36.87 L84.75 36.87 L84.75 40.129999999999995 L64.25 40.129999999999995 Z"></path><path class="cls-5 PkkkHbaG_27" width="22.77" height="5.84" transform="translate(-3.54 24.08) rotate(-25)" d="M41.15 17.1 L63.92 17.1 L63.92 22.94 L41.15 22.94 Z"></path><path class="cls-5 PkkkHbaG_28" width="9" height="14.94" transform="translate(0.66 29.56) rotate(-25)" d="M62.49 5.81 L71.49000000000001 5.81 L71.49000000000001 20.75 L62.49 20.75 Z"></path><path class="cls-5 PkkkHbaG_29" width="9" height="3.85" transform="translate(4.15 26.88) rotate(-25)" d="M58.2 2.17 L67.2 2.17 L67.2 6.02 L58.2 6.02 Z"></path><path class="cls-5 PkkkHbaG_30" width="9" height="3.85" transform="translate(-2.72 32.15) rotate(-25)" d="M66.66 20.29 L75.66 20.29 L75.66 24.14 L66.66 24.14 Z"></path><path class="cls-6 PkkkHbaG_31" d="M67,71.28c-6.58,0-24.8-.14-34,0"></path><path class="cls-6 PkkkHbaG_32" d="M69.35,71.26c.39,0-.54,0-2.35,0"></path><path class="cls-6 PkkkHbaG_33" d="M21.35,70.83a81.76,81.76,0,0,1-9-.31c-1.35-.1-.31-4.28.5-6,1-2.16,5.12-6.3,10.13-8.37,5.88-2.44,3.08-5.69,9.9-8.69,8.71-3.83,22.44-1.51,24.35-.62,3.38,1.56,3.88,3.44,6.94,7.75,1.24,1.74,8.06.06,14.25.69,5.54.56,6.06.38,7.06,7.38.22,1.56.56,4.72-.44,6.25s-2.29,2.76-3.62,2.75"></path><path class="cls-6 PkkkHbaG_34" d="M21.630000000000003,71.39A5.58,5.58 0,1,1 32.79,71.39A5.58,5.58 0,1,1 21.630000000000003,71.39"></path><path class="cls-6 PkkkHbaG_35" d="M69.88,71.35A5.58,5.58 0,1,1 81.03999999999999,71.35A5.58,5.58 0,1,1 69.88,71.35"></path><path class="cls-6 PkkkHbaG_36" d="M48.54,56c-.89,0-1.34-7.63-.12-7.67,5.84-.19,8.42.54,10.54,3.63.81,1.18,2,4,1.42,4C53,56.1,52,56.13,48.54,56Z"></path><path class="cls-6 PkkkHbaG_37" d="M32.88,50.7c2.13-1.44,4.86-2.18,11-2.56,1-.06.8,2.3.88,3.25.35,4.27-.12,4.78-.47,4.77C35.2,56,33,56.63,30.21,56.06,29.21,55.85,31.38,51.72,32.88,50.7Z"></path><path class="cls-6 PkkkHbaG_38" d="M47.46,60.05L50.44,60.08"></path><path class="cls-6 PkkkHbaG_39" d="M40.61,60.02L43.59,60.05"></path><path class="cls-6 PkkkHbaG_40" d="M67.13,70.62a8.19,8.19,0,0,1,16.34-.72"></path><path class="cls-6 PkkkHbaG_41" d="M19.05,70a8.19,8.19,0,0,1,16.36.39"></path><path class="cls-6 PkkkHbaG_42" d="M24.659999999999997,71.47A2.42,2.42 0,1,1 29.5,71.47A2.42,2.42 0,1,1 24.659999999999997,71.47"></path><path class="cls-6 PkkkHbaG_43" d="M73.08,71.39A2.42,2.42 0,1,1 77.92,71.39A2.42,2.42 0,1,1 73.08,71.39"></path></g></g><style>.PkkkHbaG_0{stroke-dasharray:35 37;stroke-dashoffset:36;animation:PkkkHbaG_draw 2000ms linear 0ms forwards;}.PkkkHbaG_1{stroke-dasharray:3 5;stroke-dashoffset:4;animation:PkkkHbaG_draw 2000ms linear 23ms forwards;}.PkkkHbaG_2{stroke-dasharray:116 118;stroke-dashoffset:117;animation:PkkkHbaG_draw 2000ms linear 46ms forwards;}.PkkkHbaG_3{stroke-dasharray:36 38;stroke-dashoffset:37;animation:PkkkHbaG_draw 2000ms linear 69ms forwards;}.PkkkHbaG_4{stroke-dasharray:36 38;stroke-dashoffset:37;animation:PkkkHbaG_draw 2000ms linear 93ms forwards;}.PkkkHbaG_5{stroke-dasharray:40 42;stroke-dashoffset:41;animation:PkkkHbaG_draw 2000ms linear 116ms forwards;}.PkkkHbaG_6{stroke-dasharray:44 46;stroke-dashoffset:45;animation:PkkkHbaG_draw 2000ms linear 139ms forwards;}.PkkkHbaG_7{stroke-dasharray:3 5;stroke-dashoffset:4;animation:PkkkHbaG_draw 2000ms linear 162ms forwards;}.PkkkHbaG_8{stroke-dasharray:3 5;stroke-dashoffset:4;animation:PkkkHbaG_draw 2000ms linear 186ms forwards;}.PkkkHbaG_9{stroke-dasharray:25 27;stroke-dashoffset:26;animation:PkkkHbaG_draw 2000ms linear 209ms forwards;}.PkkkHbaG_10{stroke-dasharray:26 28;stroke-dashoffset:27;animation:PkkkHbaG_draw 2000ms linear 232ms forwards;}.PkkkHbaG_11{stroke-dasharray:58 60;stroke-dashoffset:59;animation:PkkkHbaG_draw 2000ms linear 255ms forwards;}.PkkkHbaG_12{stroke-dasharray:48 50;stroke-dashoffset:49;animation:PkkkHbaG_draw 2000ms linear 279ms forwards;}.PkkkHbaG_13{stroke-dasharray:26 28;stroke-dashoffset:27;animation:PkkkHbaG_draw 2000ms linear 302ms forwards;}.PkkkHbaG_14{stroke-dasharray:26 28;stroke-dashoffset:27;animation:PkkkHbaG_draw 2000ms linear 325ms forwards;}.PkkkHbaG_15{stroke-dasharray:11 13;stroke-dashoffset:12;animation:PkkkHbaG_draw 2000ms linear 348ms forwards;}.PkkkHbaG_16{stroke-dasharray:5 7;stroke-dashoffset:6;animation:PkkkHbaG_draw 2000ms linear 372ms forwards;}.PkkkHbaG_17{stroke-dasharray:9 11;stroke-dashoffset:10;animation:PkkkHbaG_draw 2000ms linear 395ms forwards;}.PkkkHbaG_18{stroke-dasharray:48 50;stroke-dashoffset:49;animation:PkkkHbaG_draw 2000ms linear 418ms forwards;}.PkkkHbaG_19{stroke-dasharray:5 7;stroke-dashoffset:6;animation:PkkkHbaG_draw 2000ms linear 441ms forwards;}.PkkkHbaG_20{stroke-dasharray:97 99;stroke-dashoffset:98;animation:PkkkHbaG_draw 2000ms linear 465ms forwards;}.PkkkHbaG_21{stroke-dasharray:11 13;stroke-dashoffset:12;animation:PkkkHbaG_draw 2000ms linear 488ms forwards;}.PkkkHbaG_22{stroke-dasharray:5 7;stroke-dashoffset:6;animation:PkkkHbaG_draw 2000ms linear 511ms forwards;}.PkkkHbaG_23{stroke-dasharray:9 11;stroke-dashoffset:10;animation:PkkkHbaG_draw 2000ms linear 534ms forwards;}.PkkkHbaG_24{stroke-dasharray:5 7;stroke-dashoffset:6;animation:PkkkHbaG_draw 2000ms linear 558ms forwards;}.PkkkHbaG_25{stroke-dasharray:1 3;stroke-dashoffset:2;animation:PkkkHbaG_draw 2000ms linear 581ms forwards;}.PkkkHbaG_26{stroke-dasharray:48 50;stroke-dashoffset:49;animation:PkkkHbaG_draw 2000ms linear 604ms forwards;}.PkkkHbaG_27{stroke-dasharray:58 60;stroke-dashoffset:59;animation:PkkkHbaG_draw 2000ms linear 627ms forwards;}.PkkkHbaG_28{stroke-dasharray:48 50;stroke-dashoffset:49;animation:PkkkHbaG_draw 2000ms linear 651ms forwards;}.PkkkHbaG_29{stroke-dasharray:26 28;stroke-dashoffset:27;animation:PkkkHbaG_draw 2000ms linear 674ms forwards;}.PkkkHbaG_30{stroke-dasharray:26 28;stroke-dashoffset:27;animation:PkkkHbaG_draw 2000ms linear 697ms forwards;}.PkkkHbaG_31{stroke-dasharray:35 37;stroke-dashoffset:36;animation:PkkkHbaG_draw 2000ms linear 720ms forwards;}.PkkkHbaG_32{stroke-dasharray:3 5;stroke-dashoffset:4;animation:PkkkHbaG_draw 2000ms linear 744ms forwards;}.PkkkHbaG_33{stroke-dasharray:116 118;stroke-dashoffset:117;animation:PkkkHbaG_draw 2000ms linear 767ms forwards;}.PkkkHbaG_34{stroke-dasharray:36 38;stroke-dashoffset:37;animation:PkkkHbaG_draw 2000ms linear 790ms forwards;}.PkkkHbaG_35{stroke-dasharray:36 38;stroke-dashoffset:37;animation:PkkkHbaG_draw 2000ms linear 813ms forwards;}.PkkkHbaG_36{stroke-dasharray:37 39;stroke-dashoffset:38;animation:PkkkHbaG_draw 2000ms linear 837ms forwards;}.PkkkHbaG_37{stroke-dasharray:41 43;stroke-dashoffset:42;animation:PkkkHbaG_draw 2000ms linear 860ms forwards;}.PkkkHbaG_38{stroke-dasharray:3 5;stroke-dashoffset:4;animation:PkkkHbaG_draw 2000ms linear 883ms forwards;}.PkkkHbaG_39{stroke-dasharray:3 5;stroke-dashoffset:4;animation:PkkkHbaG_draw 2000ms linear 906ms forwards;}.PkkkHbaG_40{stroke-dasharray:25 27;stroke-dashoffset:26;animation:PkkkHbaG_draw 2000ms linear 930ms forwards;}.PkkkHbaG_41{stroke-dasharray:26 28;stroke-dashoffset:27;animation:PkkkHbaG_draw 2000ms linear 953ms forwards;}.PkkkHbaG_42{stroke-dasharray:16 18;stroke-dashoffset:17;animation:PkkkHbaG_draw 2000ms linear 976ms forwards;}.PkkkHbaG_43{stroke-dasharray:16 18;stroke-dashoffset:17;animation:PkkkHbaG_draw 2000ms linear 1000ms forwards;}@keyframes PkkkHbaG_draw{100%{stroke-dashoffset:0;}}@keyframes PkkkHbaG_fade{0%{stroke-opacity:1;}94.44444444444444%{stroke-opacity:1;}100%{stroke-opacity:0;}}</style></svg>