<svg xmlns="http://www.w3.org/2000/svg" viewBox="0 0 109.8 77.72"><defs><style>.cls-1{fill:#f0f2f6;}.cls-2{fill:#f1f4f9;}.cls-3{fill:#4158a4;}.cls-4{fill:#4259a4;}</style></defs><title>Asset 11</title><g id="Layer_2" data-name="Layer 2"><g id="Layer_1-2" data-name="Layer 1"><path class="cls-1" d="M69.17,71.95c-6.58,0-24.8-.14-34,0"/><path class="cls-1" d="M71.52,71.93c.39,0-.54,0-2.35,0"/><path class="cls-1" d="M23.52,71.49a81.76,81.76,0,0,1-9-.31c-1.35-.1-.31-4.28.5-6,1-2.16,5.12-6.3,10.12-8.37,5.88-2.44,3.75-8.56,9.31-9.44,15.56-2.45,23-.76,24.94.13,3.38,1.56,3.88,3.44,6.94,7.75,1.24,1.74,8.06.06,14.25.69,5.54.56,6.06.38,7.06,7.38.22,1.56.56,4.72-.44,6.25s-2.29,2.76-3.62,2.75"/><circle class="cls-1" cx="29.38" cy="72.06" r="5.58"/><circle class="cls-1" cx="77.63" cy="72.02" r="5.58"/><path class="cls-1" d="M50.27,56.65c-.89-.11-1.37-7.84-.16-7.87,5.84-.19,8.3.05,12.22,4.41,1,1.06,1.92,3.34,1.31,3.44A35.46,35.46,0,0,1,50.27,56.65Z"/><path class="cls-1" d="M33.46,51.43c2.13-1.44,6.44-2.37,12.63-2.75,1-.06.8,2.42.88,3.38.35,4.27-.12,4.78-.47,4.77-9.12-.19-12.81.43-15.56-.14C29.93,56.48,32,52.45,33.46,51.43Z"/><line class="cls-1" x1="49.63" y1="60.72" x2="52.61" y2="60.74"/><line class="cls-1" x1="42.77" y1="60.69" x2="45.75" y2="60.72"/><path class="cls-1" d="M69.29,71.29a8.19,8.19,0,0,1,16.34-.72"/><path class="cls-1" d="M21.22,70.65A8.19,8.19,0,0,1,37.58,71"/><rect class="cls-1" x="43.48" y="18.27" width="22.77" height="5.84" rx="1.74" ry="1.74" transform="translate(-3.81 25.17) rotate(-25)"/><rect class="cls-1" x="64.82" y="6.98" width="9" height="14.94" rx="1.82" ry="1.82" transform="translate(0.39 30.65) rotate(-25)"/><rect class="cls-1" x="60.54" y="3.33" width="9" height="3.85" rx="0.93" ry="0.93" transform="translate(3.87 27.98) rotate(-25)"/><rect class="cls-1" x="68.99" y="21.46" width="9" height="3.85" rx="0.93" ry="0.93" transform="translate(-3 33.25) rotate(-25)"/><line class="cls-2" x1="91.94" y1="33.84" x2="99.36" y2="26.57"/><line class="cls-2" x1="105.66" y1="41.47" x2="109.8" y2="41.47"/><line class="cls-2" x1="93.05" y1="41.47" x2="101.7" y2="41.47"/><rect class="cls-2" x="65.42" y="39.21" width="20.5" height="3.26"/><line class="cls-3" x1="100.96" y1="76.89" x2="105.49" y2="76.89"/><path class="cls-3" d="M105.49,77.64H101a.75.75,0,1,1,0-1.5h4.54a.75.75,0,1,1,0,1.5Z"/><line class="cls-3" x1="0.75" y1="76.89" x2="97.24" y2="76.89"/><path class="cls-3" d="M97.24,77.64H.75a.75.75,0,0,1,0-1.5H97.24a.75.75,0,0,1,0,1.5Z"/><path class="cls-3" d="M90.77,32.25A.75.75,0,0,1,90.24,31l7.42-7.27a.75.75,0,1,1,1,1.07L91.29,32A.75.75,0,0,1,90.77,32.25Z"/><path class="cls-3" d="M108.63,39.89h-4.14a.75.75,0,0,1,0-1.5h4.14a.75.75,0,0,1,0,1.5Z"/><path class="cls-3" d="M100.53,39.89H91.88a.75.75,0,0,1,0-1.5h8.65a.75.75,0,0,1,0,1.5Z"/><path class="cls-3" d="M96.94,53.8a.75.75,0,0,1-.57-.26l-3.19-3.66a.75.75,0,1,1,1.13-1l3.19,3.66a.75.75,0,0,1-.57,1.24Z"/><path class="cls-3" d="M91.38,47.77a.75.75,0,0,1-.53-.22l-.61-.61a.75.75,0,1,1,1.06-1.06l.61.61a.75.75,0,0,1-.53,1.28Z"/><path class="cls-3" d="M84.75,40.88H64.25a.75.75,0,0,1-.75-.75V36.87a.75.75,0,0,1,.75-.75h20.5a.75.75,0,0,1,.75.75v3.26A.75.75,0,0,1,84.75,40.88ZM65,39.38H84V37.62H65Z"/><path class="cls-3" d="M44.3,27.66a2.5,2.5,0,0,1-.86-.15A2.47,2.47,0,0,1,42,26.22l-1-2.14a2.49,2.49,0,0,1,1.2-3.31l17.49-8.15A2.49,2.49,0,0,1,63,13.82L64,16a2.49,2.49,0,0,1-1.2,3.31l-10.52,4.8a.75.75,0,1,1-.62-1.36l10.51-4.8a1,1,0,0,0,.47-1.31l-1-2.14A1,1,0,0,0,60.36,14L42.88,22.13a1,1,0,0,0-.48,1.31l1,2.14a1,1,0,0,0,1.31.48l3-1.35a.75.75,0,1,1,.62,1.37l-3,1.35A2.45,2.45,0,0,1,44.3,27.66Z"/><path class="cls-3" d="M67,22.1a2.59,2.59,0,0,1-.88-.16,2.56,2.56,0,0,1-1.45-1.33L59.85,10.38A2.58,2.58,0,0,1,61.09,7L65.94,4.7a2.58,2.58,0,0,1,3.42,1.25l4.77,10.23a2.58,2.58,0,0,1-1.25,3.42L68,21.86A2.56,2.56,0,0,1,67,22.1ZM67,6a1.05,1.05,0,0,0-.45.1L61.72,8.32a1.08,1.08,0,0,0-.52,1.43L66,20a1.08,1.08,0,0,0,1.43.52l4.85-2.26h0a1.08,1.08,0,0,0,.52-1.43L68,6.58A1.07,1.07,0,0,0,67.4,6,1.09,1.09,0,0,0,67,6Z"/><path class="cls-3" d="M59.89,8.18a1.68,1.68,0,0,1-1.52-1L57.52,5.4a1.68,1.68,0,0,1,.81-2.23l6.48-3A1.68,1.68,0,0,1,67,1l.84,1.81A1.68,1.68,0,0,1,67.07,5L60.59,8A1.67,1.67,0,0,1,59.89,8.18ZM65.52,1.5l-.07,0L59,4.54a.18.18,0,0,0-.08.23l.84,1.81a.2.2,0,0,0,.23.08l6.48-3h0a.2.2,0,0,0,.08-.23L65.68,1.6A.18.18,0,0,0,65.52,1.5Z"/><path class="cls-3" d="M68.34,26.31a1.69,1.69,0,0,1-.58-.1,1.66,1.66,0,0,1-.95-.87L66,23.53a1.68,1.68,0,0,1,.81-2.23l6.48-3a1.68,1.68,0,0,1,2.23.81l.84,1.81a1.68,1.68,0,0,1-.81,2.23h0l-6.48,3A1.67,1.67,0,0,1,68.34,26.31ZM74,19.63H73.9l-6.48,3a.18.18,0,0,0-.09.23l.84,1.81a.2.2,0,0,0,.23.09l6.48-3a.18.18,0,0,0,.08-.23l-.84-1.81A.2.2,0,0,0,74,19.63Zm1.25,2.82h0Z"/><path class="cls-4" d="M67,72h0l-5.14,0C53.3,72,40.38,71.92,33,72h0a.75.75,0,0,1,0-1.5c7.4-.1,20.33,0,28.89,0l5.14,0A.75.75,0,0,1,67,72Z"/><path class="cls-4" d="M67.83,72H67a.75.75,0,0,1,0-1.5h2.21a.61.61,0,0,1,.18,0,.83.83,0,0,1,.8.77c0,.48,0,.65-.83.71v0h-.08C68.94,72,68.47,72,67.83,72Z"/><path class="cls-4" d="M81.43,72.39h0a.75.75,0,0,1,0-1.5h0c.91,0,2-.86,3-2.41.35-.53.86-2,.32-5.73-.88-6.19-1-6.2-5.86-6.68L78.34,56a49.75,49.75,0,0,0-7.57,0c-3.63.19-6.26.33-7.21-1-.73-1-1.32-1.93-1.84-2.71-1.61-2.46-2.42-3.69-4.8-4.79-1.77-.82-15.35-3.06-23.74.63a9.16,9.16,0,0,0-5,4.39,8.8,8.8,0,0,1-4.87,4.3c-4.77,2-8.78,6-9.73,8-.8,1.7-1.27,4.32-1,4.94a78.88,78.88,0,0,0,8.83.3.73.73,0,0,1,.76.74.75.75,0,0,1-.74.76,83.1,83.1,0,0,1-9.07-.31,1.3,1.3,0,0,1-1-.67c-.83-1.42.31-5.1.92-6.4,1.08-2.29,5.33-6.6,10.52-8.75a7.35,7.35,0,0,0,4.15-3.68,10.65,10.65,0,0,1,5.73-5c9-3.94,23-1.52,25-.62,2.77,1.28,3.77,2.8,5.43,5.33.51.77,1.09,1.65,1.81,2.67.48.67,3.37.52,5.91.38a51.14,51.14,0,0,1,7.8,0l.53.05c5.45.54,6.19.88,7.2,8,.46,3.23.28,5.5-.55,6.77C84.35,71.32,82.88,72.39,81.43,72.39Z"/><path class="cls-4" d="M27.21,77.72a6.33,6.33,0,1,1,6.33-6.33A6.34,6.34,0,0,1,27.21,77.72Zm0-11.16A4.83,4.83,0,1,0,32,71.39,4.83,4.83,0,0,0,27.21,66.56Z"/><path class="cls-4" d="M75.46,77.68a6.33,6.33,0,1,1,6.33-6.33A6.34,6.34,0,0,1,75.46,77.68Zm0-11.16a4.83,4.83,0,1,0,4.83,4.83A4.83,4.83,0,0,0,75.46,66.52Z"/><path class="cls-4" d="M52.69,56.83c-1.47,0-2.55,0-4.18-.11h0c-1.41-.07-1.6-3.45-1.58-5.46,0-2.53.47-3.67,1.47-3.7,5.61-.18,8.71.36,11.18,3.95.29.42,2.17,3.62,1.6,4.73a.89.89,0,0,1-.78.49l-1.52,0C55.89,56.8,54.11,56.83,52.69,56.83Zm-3.82-1.59c2.95.13,4.15.11,10,0h.86a12.4,12.4,0,0,0-1.36-2.88c-1.87-2.71-4.07-3.47-9.67-3.31C48.22,50,48.44,54.19,48.87,55.24Z"/><path class="cls-4" d="M32.94,57a13.7,13.7,0,0,1-2.89-.26,1.05,1.05,0,0,1-.82-.86c-.28-1.4,1.79-4.88,3.22-5.84h0c2.39-1.61,5.37-2.32,11.42-2.69a1.29,1.29,0,0,1,1,.34c.66.61.67,1.84.68,2.92,0,.26,0,.49,0,.67.33,4.06,0,4.84-.43,5.24a1.16,1.16,0,0,1-.8.34c-4.21-.09-7,0-9,.07C34.43,57,33.65,57,32.94,57ZM30.7,55.64h0Zm0-.25a22.89,22.89,0,0,0,4.58.1c2-.07,4.65-.16,8.75-.08a14.34,14.34,0,0,0,0-4c0-.21,0-.48,0-.78a6.72,6.72,0,0,0-.17-1.78c-6.42.4-8.73,1.2-10.56,2.43h0A9.37,9.37,0,0,0,30.72,55.39Zm2.15-4.69h0Z"/><path class="cls-4" d="M50.44,60.83h0l-3,0a.75.75,0,0,1,0-1.5h0l3,0a.75.75,0,0,1,0,1.5Z"/><path class="cls-4" d="M43.58,60.8h0l-3,0a.75.75,0,0,1,0-1.5h0l3,0a.75.75,0,0,1,0,1.5Z"/><path class="cls-4" d="M67.13,71.37a.75.75,0,0,1-.75-.75,8.94,8.94,0,0,1,17.84-.78.75.75,0,0,1-.68.81.74.74,0,0,1-.81-.68,7.44,7.44,0,0,0-14.84.65A.75.75,0,0,1,67.13,71.37Z"/><path class="cls-4" d="M35.42,71.12a.75.75,0,0,1-.75-.75A7.44,7.44,0,0,0,19.8,70a.78.78,0,0,1-.78.71.75.75,0,0,1-.71-.78,8.94,8.94,0,0,1,17.86.43A.75.75,0,0,1,35.42,71.12Z"/><path class="cls-4" d="M27.08,74.64a3.17,3.17,0,1,1,3.17-3.17A3.17,3.17,0,0,1,27.08,74.64Zm0-4.83a1.67,1.67,0,1,0,1.67,1.67A1.67,1.67,0,0,0,27.08,69.81Z"/><path class="cls-4" d="M75.5,74.56a3.17,3.17,0,1,1,3.17-3.17A3.17,3.17,0,0,1,75.5,74.56Zm0-4.83a1.67,1.67,0,1,0,1.67,1.67A1.67,1.67,0,0,0,75.5,69.72Z"/></g></g></svg>