<svg xmlns="http://www.w3.org/2000/svg" xmlns:xlink="http://www.w3.org/1999/xlink" viewBox="0 0 101.36 90.49"><defs><style>.cls-1,.cls-2,.cls-4,.cls-5,.cls-9{fill:none;}.cls-1{clip-rule:evenodd;}.cls-3{fill:#f1f4f9;}.cls-4,.cls-5{stroke:#4259a4;stroke-miterlimit:10;}.cls-4,.cls-5,.cls-9{stroke-linecap:round;stroke-width:2px;}.cls-5{fill-rule:evenodd;}.cls-6{clip-path:url(#clip-path);}.cls-7{clip-path:url(#clip-path-2);}.cls-8{clip-path:url(#clip-path-3);}.cls-9{stroke:#4256a5;stroke-linejoin:round;}</style><clipPath id="clip-path" transform="translate(-566.36 -1022.42)"><path class="cls-1" d="M627.69,1085.15"/></clipPath><clipPath id="clip-path-2" transform="translate(-566.36 -1022.42)"><rect class="cls-2" x="-132.41" y="137.74" width="1121.63" height="850.74" transform="translate(-137.02 988.46) rotate(-89.69)"/></clipPath><clipPath id="clip-path-3" transform="translate(-566.36 -1022.42)"><path class="cls-1" d="M627.66,1089.15"/></clipPath></defs><title>Asset 25</title><g id="Layer_2" data-name="Layer 2"><g id="Layer_1-2" data-name="Layer 1"><rect class="cls-3" x="603.19" y="1048.34" width="51.78" height="77.1" rx="0.69" ry="0.69" transform="translate(1151.92 -560.58) rotate(90.21)"/><line class="cls-4" x1="53" y1="51.85" x2="30.21" y2="51.85"/><line class="cls-4" x1="53" y1="57.73" x2="30.21" y2="57.73"/><line class="cls-4" x1="42.61" y1="63.62" x2="30.21" y2="63.62"/><line class="cls-4" x1="48.37" y1="69.43" x2="30.21" y2="69.58"/><path class="cls-5" d="M595.09,1109" transform="translate(-566.36 -1022.42)"/><line class="cls-4" x1="43.7" y1="86.67" x2="34.78" y2="86.64"/><path class="cls-5" d="M611.77,1109.1" transform="translate(-566.36 -1022.42)"/><path class="cls-5" d="M595.09,1109l-7.6,0a.69.69,0,0,1-.69-.69l.19-50.39a.69.69,0,0,1,.69-.69l75.72.28a.69.69,0,0,1,.69.69l-.19,50.39a.69.69,0,0,1-.69.69l-48-.17" transform="translate(-566.36 -1022.42)"/><g class="cls-6"><g class="cls-7"><line x1="60.16" y1="50.88" x2="60.03" y2="74.25"/></g></g><g class="cls-8"><g class="cls-7"><line x1="60.14" y1="53.83" x2="60.02" y2="76.64"/></g></g><path class="cls-4" d="M631.48,1072.54c.14-.19,2.89-3.35,8.95-3.1a13.6,13.6,0,0,1,9.39,4.41" transform="translate(-566.36 -1022.42)"/><path class="cls-4" d="M629.81,1078.59a16.58,16.58,0,0,1,7-5,10.41,10.41,0,0,1,4.66-.2c4.69.72,8,5.19,8.26,5.74" transform="translate(-566.36 -1022.42)"/><path class="cls-4" d="M651.1,1082.29a12.1,12.1,0,0,1,.38,4.91c-.19,1.71-.28,2.68-.76,3.38" transform="translate(-566.36 -1022.42)"/><path class="cls-4" d="M629.36,1082.55a6.74,6.74,0,0,0,3.35-1.48,35.57,35.57,0,0,1,3.9-3.17,7.52,7.52,0,0,1,6.59-.4,6.42,6.42,0,0,1,3.82,4.11,8.62,8.62,0,0,1,.51,4.22c-.41,2.67-1.43,3.58-1.56,5a4.84,4.84,0,0,0,2.42,4.11" transform="translate(-566.36 -1022.42)"/><path class="cls-4" d="M629.91,1090.83c1.36-.15,4.92-.94,9.67-6" transform="translate(-566.36 -1022.42)"/><path class="cls-4" d="M634.1,1097.38a3.23,3.23,0,0,1,1.93-1.66c1.1-.25,3.36-.34,3.86,2.83" transform="translate(-566.36 -1022.42)"/><path class="cls-4" d="M645.13,1098.77c-.42-.44-2.49-1.63-2.77-3.63a4.54,4.54,0,0,1,.58-3.48" transform="translate(-566.36 -1022.42)"/><path class="cls-4" d="M628.45,1086.85a22.42,22.42,0,0,0,6-2.62c3.4-2.13,4.71-3.29,6.35-2.92s2.62,2.09,2.37,4.18c-.06.47-.33,2.13-3.68,4.64a18.21,18.21,0,0,1-8.16,3.78" transform="translate(-566.36 -1022.42)"/><path class="cls-9" d="M582.68,1044.81a11,11,0,1,1,7.74-.18" transform="translate(-566.36 -1022.42)"/><path class="cls-9" d="M590.81,1044.58l-.48-.05a20,20,0,0,1,12.68,6.33" transform="translate(-566.36 -1022.42)"/><path class="cls-9" d="M567.36,1063.06a20,20,0,0,1,15.58-18.16" transform="translate(-566.36 -1022.42)"/></g></g></svg>