<svg xmlns="http://www.w3.org/2000/svg" xmlns:xlink="http://www.w3.org/1999/xlink" viewBox="0 0 101.36 90.49" style=""><defs><style>.cls-1,.cls-2,.cls-4,.cls-5,.cls-9{fill:none;}.cls-1{clip-rule:evenodd;}.cls-3{fill:#f1f4f9;}.cls-4,.cls-5{stroke:#4259a4;stroke-miterlimit:10;}.cls-4,.cls-5,.cls-9{stroke-linecap:round;stroke-width:2px;}.cls-5{fill-rule:evenodd;}.cls-6{clip-path:url(#clip-path);}.cls-7{clip-path:url(#clip-path-2);}.cls-8{clip-path:url(#clip-path-3);}.cls-9{stroke:#4256a5;stroke-linejoin:round;}</style><clipPath id="clip-path" transform="translate(-566.36 -1022.42)"><path class="cls-1 qWdajTAe_0" d="M627.69,1085.15"></path></clipPath><clipPath id="clip-path-2" transform="translate(-566.36 -1022.42)"><path class="cls-2 qWdajTAe_1" width="1121.63" height="850.74" transform="translate(-137.02 988.46) rotate(-89.69)" d="M-132.41 137.74 L989.2200000000001 137.74 L989.2200000000001 988.48 L-132.41 988.48 Z"></path></clipPath><clipPath id="clip-path-3" transform="translate(-566.36 -1022.42)"><path class="cls-1 qWdajTAe_2" d="M627.66,1089.15"></path></clipPath></defs><title>Asset 25</title><g id="Layer_2" data-name="Layer 2"><g id="Layer_1-2" data-name="Layer 1"><path class="cls-3 qWdajTAe_3" width="51.78" height="77.1" transform="translate(1151.92 -560.58) rotate(90.21)" d="M603.19 1048.34 L654.97 1048.34 L654.97 1125.4399999999998 L603.19 1125.4399999999998 Z"></path><path class="cls-4 qWdajTAe_4" d="M53,51.85L30.21,51.85"></path><path class="cls-4 qWdajTAe_5" d="M53,57.73L30.21,57.73"></path><path class="cls-4 qWdajTAe_6" d="M42.61,63.62L30.21,63.62"></path><path class="cls-4 qWdajTAe_7" d="M48.37,69.43L30.21,69.58"></path><path class="cls-5 qWdajTAe_8" d="M595.09,1109" transform="translate(-566.36 -1022.42)"></path><path class="cls-4 qWdajTAe_9" d="M43.7,86.67L34.78,86.64"></path><path class="cls-5 qWdajTAe_10" d="M611.77,1109.1" transform="translate(-566.36 -1022.42)"></path><path class="cls-5 qWdajTAe_11" d="M595.09,1109l-7.6,0a.69.69,0,0,1-.69-.69l.19-50.39a.69.69,0,0,1,.69-.69l75.72.28a.69.69,0,0,1,.69.69l-.19,50.39a.69.69,0,0,1-.69.69l-48-.17" transform="translate(-566.36 -1022.42)"></path><g class="cls-6"><g class="cls-7"><path d="M60.16,50.88L60.03,74.25" class="qWdajTAe_12"></path></g></g><g class="cls-8"><g class="cls-7"><path d="M60.14,53.83L60.02,76.64" class="qWdajTAe_13"></path></g></g><path class="cls-4 qWdajTAe_14" d="M631.48,1072.54c.14-.19,2.89-3.35,8.95-3.1a13.6,13.6,0,0,1,9.39,4.41" transform="translate(-566.36 -1022.42)"></path><path class="cls-4 qWdajTAe_15" d="M629.81,1078.59a16.58,16.58,0,0,1,7-5,10.41,10.41,0,0,1,4.66-.2c4.69.72,8,5.19,8.26,5.74" transform="translate(-566.36 -1022.42)"></path><path class="cls-4 qWdajTAe_16" d="M651.1,1082.29a12.1,12.1,0,0,1,.38,4.91c-.19,1.71-.28,2.68-.76,3.38" transform="translate(-566.36 -1022.42)"></path><path class="cls-4 qWdajTAe_17" d="M629.36,1082.55a6.74,6.74,0,0,0,3.35-1.48,35.57,35.57,0,0,1,3.9-3.17,7.52,7.52,0,0,1,6.59-.4,6.42,6.42,0,0,1,3.82,4.11,8.62,8.62,0,0,1,.51,4.22c-.41,2.67-1.43,3.58-1.56,5a4.84,4.84,0,0,0,2.42,4.11" transform="translate(-566.36 -1022.42)"></path><path class="cls-4 qWdajTAe_18" d="M629.91,1090.83c1.36-.15,4.92-.94,9.67-6" transform="translate(-566.36 -1022.42)"></path><path class="cls-4 qWdajTAe_19" d="M634.1,1097.38a3.23,3.23,0,0,1,1.93-1.66c1.1-.25,3.36-.34,3.86,2.83" transform="translate(-566.36 -1022.42)"></path><path class="cls-4 qWdajTAe_20" d="M645.13,1098.77c-.42-.44-2.49-1.63-2.77-3.63a4.54,4.54,0,0,1,.58-3.48" transform="translate(-566.36 -1022.42)"></path><path class="cls-4 qWdajTAe_21" d="M628.45,1086.85a22.42,22.42,0,0,0,6-2.62c3.4-2.13,4.71-3.29,6.35-2.92s2.62,2.09,2.37,4.18c-.06.47-.33,2.13-3.68,4.64a18.21,18.21,0,0,1-8.16,3.78" transform="translate(-566.36 -1022.42)"></path><path class="cls-9 qWdajTAe_22" d="M582.68,1044.81a11,11,0,1,1,7.74-.18" transform="translate(-566.36 -1022.42)"></path><path class="cls-9 qWdajTAe_23" d="M590.81,1044.58l-.48-.05a20,20,0,0,1,12.68,6.33" transform="translate(-566.36 -1022.42)"></path><path class="cls-9 qWdajTAe_24" d="M567.36,1063.06a20,20,0,0,1,15.58-18.16" transform="translate(-566.36 -1022.42)"></path></g></g><style>.qWdajTAe_0{stroke-dasharray:0 2;stroke-dashoffset:1;animation:qWdajTAe_draw 2000ms linear 0ms forwards;}.qWdajTAe_1{stroke-dasharray:3945 3947;stroke-dashoffset:3946;animation:qWdajTAe_draw 2000ms linear 41ms forwards;}.qWdajTAe_2{stroke-dasharray:0 2;stroke-dashoffset:1;animation:qWdajTAe_draw 2000ms linear 83ms forwards;}.qWdajTAe_3{stroke-dasharray:258 260;stroke-dashoffset:259;animation:qWdajTAe_draw 2000ms linear 125ms forwards;}.qWdajTAe_4{stroke-dasharray:23 25;stroke-dashoffset:24;animation:qWdajTAe_draw 2000ms linear 166ms forwards;}.qWdajTAe_5{stroke-dasharray:23 25;stroke-dashoffset:24;animation:qWdajTAe_draw 2000ms linear 208ms forwards;}.qWdajTAe_6{stroke-dasharray:13 15;stroke-dashoffset:14;animation:qWdajTAe_draw 2000ms linear 250ms forwards;}.qWdajTAe_7{stroke-dasharray:19 21;stroke-dashoffset:20;animation:qWdajTAe_draw 2000ms linear 291ms forwards;}.qWdajTAe_8{stroke-dasharray:0 2;stroke-dashoffset:1;animation:qWdajTAe_draw 2000ms linear 333ms forwards;}.qWdajTAe_9{stroke-dasharray:9 11;stroke-dashoffset:10;animation:qWdajTAe_draw 2000ms linear 375ms forwards;}.qWdajTAe_10{stroke-dasharray:0 2;stroke-dashoffset:1;animation:qWdajTAe_draw 2000ms linear 416ms forwards;}.qWdajTAe_11{stroke-dasharray:237 239;stroke-dashoffset:238;animation:qWdajTAe_draw 2000ms linear 458ms forwards;}.qWdajTAe_12{stroke-dasharray:24 26;stroke-dashoffset:25;animation:qWdajTAe_draw 2000ms linear 500ms forwards;}.qWdajTAe_13{stroke-dasharray:23 25;stroke-dashoffset:24;animation:qWdajTAe_draw 2000ms linear 541ms forwards;}.qWdajTAe_14{stroke-dasharray:21 23;stroke-dashoffset:22;animation:qWdajTAe_draw 2000ms linear 583ms forwards;}.qWdajTAe_15{stroke-dasharray:24 26;stroke-dashoffset:25;animation:qWdajTAe_draw 2000ms linear 625ms forwards;}.qWdajTAe_16{stroke-dasharray:9 11;stroke-dashoffset:10;animation:qWdajTAe_draw 2000ms linear 666ms forwards;}.qWdajTAe_17{stroke-dasharray:36 38;stroke-dashoffset:37;animation:qWdajTAe_draw 2000ms linear 708ms forwards;}.qWdajTAe_18{stroke-dasharray:12 14;stroke-dashoffset:13;animation:qWdajTAe_draw 2000ms linear 750ms forwards;}.qWdajTAe_19{stroke-dasharray:9 11;stroke-dashoffset:10;animation:qWdajTAe_draw 2000ms linear 791ms forwards;}.qWdajTAe_20{stroke-dasharray:9 11;stroke-dashoffset:10;animation:qWdajTAe_draw 2000ms linear 833ms forwards;}.qWdajTAe_21{stroke-dasharray:35 37;stroke-dashoffset:36;animation:qWdajTAe_draw 2000ms linear 875ms forwards;}.qWdajTAe_22{stroke-dasharray:62 64;stroke-dashoffset:63;animation:qWdajTAe_draw 2000ms linear 916ms forwards;}.qWdajTAe_23{stroke-dasharray:15 17;stroke-dashoffset:16;animation:qWdajTAe_draw 2000ms linear 958ms forwards;}.qWdajTAe_24{stroke-dasharray:26 28;stroke-dashoffset:27;animation:qWdajTAe_draw 2000ms linear 1000ms forwards;}@keyframes qWdajTAe_draw{100%{stroke-dashoffset:0;}}@keyframes qWdajTAe_fade{0%{stroke-opacity:1;}94.44444444444444%{stroke-opacity:1;}100%{stroke-opacity:0;}}</style></svg>