<svg xmlns="http://www.w3.org/2000/svg" viewBox="0 0 87.06 61.4">
    <defs>
        <style>
            .cls-1{fill:#f1f3f7;stroke-miterlimit:10;}.cls-1,.cls-4{stroke:#f1f3f7;}.cls-1,.cls-2,.cls-3,.cls-4{stroke-width:2px;}.cls-2,.cls-3,.cls-4{fill:none;stroke-linecap:round;stroke-linejoin:round;}.cls-2{stroke:#3f55af;}.cls-3{stroke:#de4400;}
        </style>
    </defs>
    <title>Perishable Image</title>
    <g id="Layer_2" data-name="Layer 2">
        <g id="Layer_1-2" data-name="Layer 1">
            <path class="cls-1"
                  d="M21.51,4.61c-.5,0-1,0-1.47.06a4,4,0,0,1-2.49,3.59c0,.13,0,.25,0,.38a4,4,0,0,1-4,4h-.15a4,4,0,0,1-6,2.72A4,4,0,0,1,5.35,16a4,4,0,0,1-.58-.06A18.05,18.05,0,1,0,21.51,4.61Z"/>
            <path class="cls-2" d="M29.7,34.77q.59-.43,1.14-.91"/>
            <path class="cls-3" d="M29.7,34.77"/>
            <path class="cls-2" d="M25.76,37a18,18,0,0,0,2-1"/>
            <path class="cls-2"
                  d="M28.86,5a18,18,0,0,0-9.81-2.89c-.5,0-1,0-1.47.06A4,4,0,0,1,15.09,5.8c0,.13,0,.25,0,.38a4,4,0,0,1-4,4h-.15a4,4,0,0,1-6,2.72,4,4,0,0,1-2.05.58,4,4,0,0,1-.58-.06,18.06,18.06,0,0,0,21.1,24.28"/>
            <path class="cls-4" d="M43.66,16.91s-.82-7.38,4.1-10.67"/>
            <path class="cls-1"
                  d="M34.46,10.33a8.11,8.11,0,0,0,5.23,4.45A8.12,8.12,0,0,0,34.51,3.46,8.11,8.11,0,0,0,34.46,10.33Z"/>
            <path class="cls-1"
                  d="M51.1,34.33a9,9,0,0,1,6.71-9.73,10.36,10.36,0,0,0-9.75-6.86,6.5,6.5,0,0,0-3.1,1,2.4,2.4,0,0,1-2.6,0,6.5,6.5,0,0,0-3.1-1,10.36,10.36,0,0,0-9.75,6.86,9,9,0,0,1,1.43,17A11.26,11.26,0,0,0,41,47.27a6.14,6.14,0,0,0,1.27-.22,5.33,5.33,0,0,1,2.74,0,6.14,6.14,0,0,0,1.27.22,11.26,11.26,0,0,0,10.08-5.72,9.07,9.07,0,0,1-2.76-1.92"/>
            <path class="cls-1"
                  d="M77.84,34.24a1.64,1.64,0,0,0-1.36-2.56,2.46,2.46,0,0,0-4.68-1,3.27,3.27,0,0,0-5.87,1.05h-.11a1.63,1.63,0,0,0-1.4,2.49l-.24,0a1.64,1.64,0,0,0-1.64,1.64V51.3a1.68,1.68,0,0,0,1.11,1.63,1.65,1.65,0,0,0,2.18-1.56v-4.1a1.64,1.64,0,1,1,3.28,0V58.76a1.64,1.64,0,1,0,3.28,0v-9a1.64,1.64,0,1,1,3.28,0v1.64a1.64,1.64,0,1,0,3.28,0V35.78A1.64,1.64,0,0,0,77.84,34.24Z"/>
            <path class="cls-1"
                  d="M69.6,51.48l-25.16-12a2.46,2.46,0,0,1-1.16-3.29l8.86-18.51a7,7,0,0,1,3.42-3.35h0l-.2-1.38a5.17,5.17,0,0,1,.46-3L56,9.68a5.11,5.11,0,0,1,6.81-2.4L83.16,17a5.11,5.11,0,0,1,2.4,6.81l-.3.63a5.17,5.17,0,0,1-2.2,2.32l-1,.53.12,1.15a7,7,0,0,1-.65,3.75l-8.67,18.1A2.46,2.46,0,0,1,69.6,51.48Z"/>
            <path class="cls-2" d="M41.2,14.45s-.82-7.38,4.1-10.67"/>
            <path class="cls-2" d="M32,7.87a8.11,8.11,0,0,0,5.23,4.45A8.12,8.12,0,0,0,32,1,8.11,8.11,0,0,0,32,7.87Z"/>
            <path class="cls-2"
                  d="M38.28,29.84a1.43,1.43,0,0,0,.92.79,1.43,1.43,0,0,0-.91-2A1.43,1.43,0,0,0,38.28,29.84Z"/>
            <path class="cls-2"
                  d="M44.13,29.84a1.43,1.43,0,0,1-.92.79,1.43,1.43,0,0,1,.91-2A1.43,1.43,0,0,1,44.13,29.84Z"/>
            <path class="cls-2"
                  d="M48.64,31.87a9,9,0,0,1,6.71-9.73,10.36,10.36,0,0,0-9.75-6.86,6.5,6.5,0,0,0-3.1,1,2.4,2.4,0,0,1-2.6,0,6.5,6.5,0,0,0-3.1-1,10.36,10.36,0,0,0-9.75,6.86,9,9,0,0,1,1.43,17,11.26,11.26,0,0,0,10.08,5.72,6.14,6.14,0,0,0,1.27-.22,5.33,5.33,0,0,1,2.74,0,6.14,6.14,0,0,0,1.27.22,11.26,11.26,0,0,0,10.08-5.72,9.07,9.07,0,0,1-2.76-1.92"/>
            <path class="cls-2" d="M49.88,35.52a9,9,0,0,1-.69-1.39"/>
            <line class="cls-2" x1="57.51" y1="44.41" x2="54.34" y2="42.89"/>
            <path class="cls-2"
                  d="M50.65,13.69a7,7,0,0,1,2.46-1.85h0l-.2-1.38a5.17,5.17,0,0,1,.45-3l.13-.27a5.11,5.11,0,0,1,6.81-2.4L80.7,14.58a5.11,5.11,0,0,1,2.4,6.81l-.3.63a5.17,5.17,0,0,1-2.2,2.32l-1,.53L79.74,26a7,7,0,0,1-.65,3.75l-.42.87"/>
            <path class="cls-2"
                  d="M76.48,42.12V40.71m0-2.46V33.32a1.64,1.64,0,0,0-1.1-1.54A1.64,1.64,0,0,0,74,29.22a2.46,2.46,0,0,0-4.68-1,3.27,3.27,0,0,0-5.87,1.05h-.11A1.63,1.63,0,0,0,62,31.71l-.24,0a1.64,1.64,0,0,0-1.64,1.64V48.84a1.68,1.68,0,0,0,1.11,1.63,1.65,1.65,0,0,0,2.18-1.56v-4.1a1.64,1.64,0,1,1,3.28,0V56.3a1.64,1.64,0,0,0,3.28,0v-9a1.64,1.64,0,1,1,3.28,0v1.64a1.64,1.64,0,0,0,3.28,0v-4.1"/>
            <path class="cls-2" d="M20.83,23.89a4.1,4.1,0,1,1,1.8-1.7"/>
            <circle class="cls-2" cx="70.33" cy="32.91" r="0.41"/>
            <circle class="cls-2" cx="70.33" cy="40.3" r="0.41"/>
            <circle class="cls-2" cx="63.77" cy="38.66" r="0.41"/>
        </g>
    </g>
</svg>