<svg xmlns="http://www.w3.org/2000/svg" viewBox="0 0 87.06 61.4" style="">
    <defs>
        <style>
            .cls-1{fill:#f1f3f7;stroke-miterlimit:10;}.cls-1,.cls-4{stroke:#f1f3f7;}.cls-1,.cls-2,.cls-3,.cls-4{stroke-width:2px;}.cls-2,.cls-3,.cls-4{fill:none;stroke-linecap:round;stroke-linejoin:round;}.cls-2{stroke:#3f55af;}.cls-3{stroke:#de4400;}
        </style>
    </defs>
    <title>Perishable Image Animated</title>
    <g id="Layer_2" data-name="Layer 2">
        <g id="Layer_1-2" data-name="Layer 1">
            <path class="cls-1 uENstxDI_0"
                  d="M21.51,4.61c-.5,0-1,0-1.47.06a4,4,0,0,1-2.49,3.59c0,.13,0,.25,0,.38a4,4,0,0,1-4,4h-.15a4,4,0,0,1-6,2.72A4,4,0,0,1,5.35,16a4,4,0,0,1-.58-.06A18.05,18.05,0,1,0,21.51,4.61Z"></path>
            <path class="cls-2 uENstxDI_1" d="M29.7,34.77q.59-.43,1.14-.91"></path>
            <path class="cls-3 uENstxDI_2" d="M29.7,34.77"></path>
            <path class="cls-2 uENstxDI_3" d="M25.76,37a18,18,0,0,0,2-1"></path>
            <path class="cls-2 uENstxDI_4"
                  d="M28.86,5a18,18,0,0,0-9.81-2.89c-.5,0-1,0-1.47.06A4,4,0,0,1,15.09,5.8c0,.13,0,.25,0,.38a4,4,0,0,1-4,4h-.15a4,4,0,0,1-6,2.72,4,4,0,0,1-2.05.58,4,4,0,0,1-.58-.06,18.06,18.06,0,0,0,21.1,24.28"></path>
            <path class="cls-4 uENstxDI_5" d="M43.66,16.91s-.82-7.38,4.1-10.67"></path>
            <path class="cls-1 uENstxDI_6"
                  d="M34.46,10.33a8.11,8.11,0,0,0,5.23,4.45A8.12,8.12,0,0,0,34.51,3.46,8.11,8.11,0,0,0,34.46,10.33Z"></path>
            <path class="cls-1 uENstxDI_7"
                  d="M51.1,34.33a9,9,0,0,1,6.71-9.73,10.36,10.36,0,0,0-9.75-6.86,6.5,6.5,0,0,0-3.1,1,2.4,2.4,0,0,1-2.6,0,6.5,6.5,0,0,0-3.1-1,10.36,10.36,0,0,0-9.75,6.86,9,9,0,0,1,1.43,17A11.26,11.26,0,0,0,41,47.27a6.14,6.14,0,0,0,1.27-.22,5.33,5.33,0,0,1,2.74,0,6.14,6.14,0,0,0,1.27.22,11.26,11.26,0,0,0,10.08-5.72,9.07,9.07,0,0,1-2.76-1.92"></path>
            <path class="cls-1 uENstxDI_8"
                  d="M77.84,34.24a1.64,1.64,0,0,0-1.36-2.56,2.46,2.46,0,0,0-4.68-1,3.27,3.27,0,0,0-5.87,1.05h-.11a1.63,1.63,0,0,0-1.4,2.49l-.24,0a1.64,1.64,0,0,0-1.64,1.64V51.3a1.68,1.68,0,0,0,1.11,1.63,1.65,1.65,0,0,0,2.18-1.56v-4.1a1.64,1.64,0,1,1,3.28,0V58.76a1.64,1.64,0,1,0,3.28,0v-9a1.64,1.64,0,1,1,3.28,0v1.64a1.64,1.64,0,1,0,3.28,0V35.78A1.64,1.64,0,0,0,77.84,34.24Z"></path>
            <path class="cls-1 uENstxDI_9"
                  d="M69.6,51.48l-25.16-12a2.46,2.46,0,0,1-1.16-3.29l8.86-18.51a7,7,0,0,1,3.42-3.35h0l-.2-1.38a5.17,5.17,0,0,1,.46-3L56,9.68a5.11,5.11,0,0,1,6.81-2.4L83.16,17a5.11,5.11,0,0,1,2.4,6.81l-.3.63a5.17,5.17,0,0,1-2.2,2.32l-1,.53.12,1.15a7,7,0,0,1-.65,3.75l-8.67,18.1A2.46,2.46,0,0,1,69.6,51.48Z"></path>
            <path class="cls-2 uENstxDI_10" d="M41.2,14.45s-.82-7.38,4.1-10.67"></path>
            <path class="cls-2 uENstxDI_11"
                  d="M32,7.87a8.11,8.11,0,0,0,5.23,4.45A8.12,8.12,0,0,0,32,1,8.11,8.11,0,0,0,32,7.87Z"></path>
            <path class="cls-2 uENstxDI_12"
                  d="M38.28,29.84a1.43,1.43,0,0,0,.92.79,1.43,1.43,0,0,0-.91-2A1.43,1.43,0,0,0,38.28,29.84Z"></path>
            <path class="cls-2 uENstxDI_13"
                  d="M44.13,29.84a1.43,1.43,0,0,1-.92.79,1.43,1.43,0,0,1,.91-2A1.43,1.43,0,0,1,44.13,29.84Z"></path>
            <path class="cls-2 uENstxDI_14"
                  d="M48.64,31.87a9,9,0,0,1,6.71-9.73,10.36,10.36,0,0,0-9.75-6.86,6.5,6.5,0,0,0-3.1,1,2.4,2.4,0,0,1-2.6,0,6.5,6.5,0,0,0-3.1-1,10.36,10.36,0,0,0-9.75,6.86,9,9,0,0,1,1.43,17,11.26,11.26,0,0,0,10.08,5.72,6.14,6.14,0,0,0,1.27-.22,5.33,5.33,0,0,1,2.74,0,6.14,6.14,0,0,0,1.27.22,11.26,11.26,0,0,0,10.08-5.72,9.07,9.07,0,0,1-2.76-1.92"></path>
            <path class="cls-2 uENstxDI_15" d="M49.88,35.52a9,9,0,0,1-.69-1.39"></path>
            <path class="cls-2 uENstxDI_16" d="M57.51,44.41L54.34,42.89"></path>
            <path class="cls-2 uENstxDI_17"
                  d="M50.65,13.69a7,7,0,0,1,2.46-1.85h0l-.2-1.38a5.17,5.17,0,0,1,.45-3l.13-.27a5.11,5.11,0,0,1,6.81-2.4L80.7,14.58a5.11,5.11,0,0,1,2.4,6.81l-.3.63a5.17,5.17,0,0,1-2.2,2.32l-1,.53L79.74,26a7,7,0,0,1-.65,3.75l-.42.87"></path>
            <path class="cls-2 uENstxDI_18"
                  d="M76.48,42.12V40.71m0-2.46V33.32a1.64,1.64,0,0,0-1.1-1.54A1.64,1.64,0,0,0,74,29.22a2.46,2.46,0,0,0-4.68-1,3.27,3.27,0,0,0-5.87,1.05h-.11A1.63,1.63,0,0,0,62,31.71l-.24,0a1.64,1.64,0,0,0-1.64,1.64V48.84a1.68,1.68,0,0,0,1.11,1.63,1.65,1.65,0,0,0,2.18-1.56v-4.1a1.64,1.64,0,1,1,3.28,0V56.3a1.64,1.64,0,0,0,3.28,0v-9a1.64,1.64,0,1,1,3.28,0v1.64a1.64,1.64,0,0,0,3.28,0v-4.1"></path>
            <path class="cls-2 uENstxDI_19" d="M20.83,23.89a4.1,4.1,0,1,1,1.8-1.7"></path>
            <path class="cls-2 uENstxDI_20"
                  d="M69.92,32.91A0.41,0.41 0,1,1 70.74,32.91A0.41,0.41 0,1,1 69.92,32.91"></path>
            <path class="cls-2 uENstxDI_21"
                  d="M69.92,40.3A0.41,0.41 0,1,1 70.74,40.3A0.41,0.41 0,1,1 69.92,40.3"></path>
            <path class="cls-2 uENstxDI_22"
                  d="M63.36000000000001,38.66A0.41,0.41 0,1,1 64.18,38.66A0.41,0.41 0,1,1 63.36000000000001,38.66"></path>
        </g>
    </g>
    <style>.uENstxDI_0{stroke-dasharray:116 118;stroke-dashoffset:117;animation:uENstxDI_draw 2666ms ease-in-out 0ms
        forwards;}.uENstxDI_1{stroke-dasharray:2 4;stroke-dashoffset:3;animation:uENstxDI_draw 2666ms ease-in-out 60ms
        forwards;}.uENstxDI_2{stroke-dasharray:0 2;stroke-dashoffset:1;animation:uENstxDI_draw 2666ms ease-in-out 121ms
        forwards;}.uENstxDI_3{stroke-dasharray:3 5;stroke-dashoffset:4;animation:uENstxDI_draw 2666ms ease-in-out 181ms
        forwards;}.uENstxDI_4{stroke-dasharray:74 76;stroke-dashoffset:75;animation:uENstxDI_draw 2666ms ease-in-out
        242ms forwards;}.uENstxDI_5{stroke-dasharray:12 14;stroke-dashoffset:13;animation:uENstxDI_draw 2666ms
        ease-in-out 303ms forwards;}.uENstxDI_6{stroke-dasharray:29 31;stroke-dashoffset:30;animation:uENstxDI_draw
        2666ms ease-in-out 363ms forwards;}.uENstxDI_7{stroke-dasharray:104
        106;stroke-dashoffset:105;animation:uENstxDI_draw 2666ms ease-in-out 424ms
        forwards;}.uENstxDI_8{stroke-dasharray:110 112;stroke-dashoffset:111;animation:uENstxDI_draw 2666ms ease-in-out
        484ms forwards;}.uENstxDI_9{stroke-dasharray:135 137;stroke-dashoffset:136;animation:uENstxDI_draw 2666ms
        ease-in-out 545ms forwards;}.uENstxDI_10{stroke-dasharray:12 14;stroke-dashoffset:13;animation:uENstxDI_draw
        2666ms ease-in-out 606ms forwards;}.uENstxDI_11{stroke-dasharray:29
        31;stroke-dashoffset:30;animation:uENstxDI_draw 2666ms ease-in-out 666ms
        forwards;}.uENstxDI_12{stroke-dasharray:6 8;stroke-dashoffset:7;animation:uENstxDI_draw 2666ms ease-in-out 727ms
        forwards;}.uENstxDI_13{stroke-dasharray:6 8;stroke-dashoffset:7;animation:uENstxDI_draw 2666ms ease-in-out 787ms
        forwards;}.uENstxDI_14{stroke-dasharray:104 106;stroke-dashoffset:105;animation:uENstxDI_draw 2666ms ease-in-out
        848ms forwards;}.uENstxDI_15{stroke-dasharray:2 4;stroke-dashoffset:3;animation:uENstxDI_draw 2666ms ease-in-out
        909ms forwards;}.uENstxDI_16{stroke-dasharray:4 6;stroke-dashoffset:5;animation:uENstxDI_draw 2666ms ease-in-out
        969ms forwards;}.uENstxDI_17{stroke-dasharray:58 60;stroke-dashoffset:59;animation:uENstxDI_draw 2666ms
        ease-in-out 1030ms forwards;}.uENstxDI_18{stroke-dasharray:104 106;stroke-dashoffset:105;animation:uENstxDI_draw
        2666ms ease-in-out 1090ms forwards;}.uENstxDI_19{stroke-dasharray:24
        26;stroke-dashoffset:25;animation:uENstxDI_draw 2666ms ease-in-out 1151ms
        forwards;}.uENstxDI_20{stroke-dasharray:3 5;stroke-dashoffset:4;animation:uENstxDI_draw 2666ms ease-in-out
        1212ms forwards;}.uENstxDI_21{stroke-dasharray:3 5;stroke-dashoffset:4;animation:uENstxDI_draw 2666ms
        ease-in-out 1272ms forwards;}.uENstxDI_22{stroke-dasharray:3 5;stroke-dashoffset:4;animation:uENstxDI_draw
        2666ms ease-in-out 1333ms forwards;}@keyframes uENstxDI_draw{100%{stroke-dashoffset:0;}}@keyframes
        uENstxDI_fade{0%{stroke-opacity:1;}95.1219512195122%{stroke-opacity:1;}100%{stroke-opacity:0;}}
    </style>
</svg>