<svg xmlns="http://www.w3.org/2000/svg" viewBox="0 0 111 41.8" style="">
    <defs>
        <style>
            .cls-1,.cls-3{fill:#f1f3f7;}.cls-1,.cls-2{stroke:#f1f3f7;}.cls-1,.cls-2,.cls-4,.cls-5{stroke-linecap:round;stroke-width:2px;}.cls-1,.cls-2,.cls-4{stroke-linejoin:round;}.cls-2,.cls-4,.cls-5{fill:none;}.cls-4,.cls-5{stroke:#3f55af;}.cls-5{stroke-miterlimit:10;}
        </style>
    </defs>
    <title>Bond Network Image Amimated</title>
    <g id="Layer_2" data-name="Layer 2">
        <g id="Layer_1-2" data-name="Layer 1">
            <path class="cls-1 zFANWvFt_0" width="29" height="39" transform="translate(83.8 -31.2) rotate(90)"
                  d="M43 6.8 L72 6.8 L72 45.8 L43 45.8 Z"></path>
            <path class="cls-2 zFANWvFt_1" d="M80.97,23.83L94,10.79L99.5,16.3L107.96,7.84"></path>
            <path class="cls-3 zFANWvFt_2" d="M109.45,10.57L111,4.79L105.22,6.34L109.45,10.57Z"></path>
            <path class="cls-2 zFANWvFt_3" d="M4,40.8L10,34.8L12.5,37.3L20.5,29.3L27.5,36.3L34.38,29.42"></path>
            <path class="cls-4 zFANWvFt_4" d="M66.92,37.8L35,37.8L35,8.79L74,8.79L74,24.83"></path>
            <path class="cls-4 zFANWvFt_5" d="M74,33.92L74,37.8L70.5,37.8"></path>
            <path class="cls-4 zFANWvFt_6" d="M74,28.5L74,30.04"></path>
            <path class="cls-4 zFANWvFt_7" d="M51.5,15.8A3,3 0,1,1 57.5,15.8A3,3 0,1,1 51.5,15.8"></path>
            <path class="cls-4 zFANWvFt_8" d="M42,23.8L67,23.8"></path>
            <path class="cls-4 zFANWvFt_9" d="M42,28.3L67,28.3"></path>
            <path class="cls-4 zFANWvFt_10" d="M47,32.8L62,32.8"></path>
            <path class="cls-4 zFANWvFt_11" d="M108,1.79L96.5,13.29L91,7.79L77.97,20.83"></path>
            <path class="cls-4 zFANWvFt_12" d="M1,37.8L7,31.8L9.5,34.3L17.5,26.3L24.5,33.3L31.38,26.42"></path>
            <path class="cls-5 zFANWvFt_13" d="M108,1.79L105,3L106.8,4.79L108,1.79Z"></path>
        </g>
    </g>
    <style>.zFANWvFt_0{stroke-dasharray:136 138;stroke-dashoffset:137;animation:zFANWvFt_draw 2666ms ease-in-out 0ms
        forwards;}.zFANWvFt_1{stroke-dasharray:39 41;stroke-dashoffset:40;animation:zFANWvFt_draw 2666ms ease-in-out
        102ms forwards;}.zFANWvFt_2{stroke-dasharray:18 20;stroke-dashoffset:19;animation:zFANWvFt_draw 2666ms
        ease-in-out 205ms forwards;}.zFANWvFt_3{stroke-dasharray:43 45;stroke-dashoffset:44;animation:zFANWvFt_draw
        2666ms ease-in-out 307ms forwards;}.zFANWvFt_4{stroke-dasharray:116
        118;stroke-dashoffset:117;animation:zFANWvFt_draw 2666ms ease-in-out 410ms
        forwards;}.zFANWvFt_5{stroke-dasharray:8 10;stroke-dashoffset:9;animation:zFANWvFt_draw 2666ms ease-in-out 512ms
        forwards;}.zFANWvFt_6{stroke-dasharray:2 4;stroke-dashoffset:3;animation:zFANWvFt_draw 2666ms ease-in-out 615ms
        forwards;}.zFANWvFt_7{stroke-dasharray:19 21;stroke-dashoffset:20;animation:zFANWvFt_draw 2666ms ease-in-out
        717ms forwards;}.zFANWvFt_8{stroke-dasharray:25 27;stroke-dashoffset:26;animation:zFANWvFt_draw 2666ms
        ease-in-out 820ms forwards;}.zFANWvFt_9{stroke-dasharray:25 27;stroke-dashoffset:26;animation:zFANWvFt_draw
        2666ms ease-in-out 923ms forwards;}.zFANWvFt_10{stroke-dasharray:15
        17;stroke-dashoffset:16;animation:zFANWvFt_draw 2666ms ease-in-out 1025ms
        forwards;}.zFANWvFt_11{stroke-dasharray:43 45;stroke-dashoffset:44;animation:zFANWvFt_draw 2666ms ease-in-out
        1128ms forwards;}.zFANWvFt_12{stroke-dasharray:43 45;stroke-dashoffset:44;animation:zFANWvFt_draw 2666ms
        ease-in-out 1230ms forwards;}.zFANWvFt_13{stroke-dasharray:10 12;stroke-dashoffset:11;animation:zFANWvFt_draw
        2666ms ease-in-out 1333ms forwards;}@keyframes zFANWvFt_draw{100%{stroke-dashoffset:0;}}@keyframes
        zFANWvFt_fade{0%{stroke-opacity:1;}95.1219512195122%{stroke-opacity:1;}100%{stroke-opacity:0;}}
    </style>
</svg>