<svg xmlns="http://www.w3.org/2000/svg" viewBox="0 0 111 41.8">
    <defs>
        <style>
            .cls-1,.cls-3{fill:#f1f3f7;}.cls-1,.cls-2{stroke:#f1f3f7;}.cls-1,.cls-2,.cls-4,.cls-5{stroke-linecap:round;stroke-width:2px;}.cls-1,.cls-2,.cls-4{stroke-linejoin:round;}.cls-2,.cls-4,.cls-5{fill:none;}.cls-4,.cls-5{stroke:#3f55af;}.cls-5{stroke-miterlimit:10;}
        </style>
    </defs>
    <title>Bond Network Image</title>
    <g id="Layer_2" data-name="Layer 2">
        <g id="Layer_1-2" data-name="Layer 1">
            <rect class="cls-1" x="43" y="6.8" width="29" height="39" transform="translate(83.8 -31.2) rotate(90)"/>
            <polyline class="cls-2" points="80.97 23.83 94 10.79 99.5 16.3 107.96 7.84"/>
            <polygon class="cls-3" points="109.45 10.57 111 4.79 105.22 6.34 109.45 10.57"/>
            <polyline class="cls-2" points="4 40.8 10 34.8 12.5 37.3 20.5 29.3 27.5 36.3 34.38 29.42"/>
            <polyline class="cls-4" points="66.92 37.8 35 37.8 35 8.79 74 8.79 74 24.83"/>
            <polyline class="cls-4" points="74 33.92 74 37.8 70.5 37.8"/>
            <line class="cls-4" x1="74" y1="28.5" x2="74" y2="30.04"/>
            <circle class="cls-4" cx="54.5" cy="15.8" r="3"/>
            <line class="cls-4" x1="42" y1="23.8" x2="67" y2="23.8"/>
            <line class="cls-4" x1="42" y1="28.3" x2="67" y2="28.3"/>
            <line class="cls-4" x1="47" y1="32.8" x2="62" y2="32.8"/>
            <polyline class="cls-4" points="108 1.79 96.5 13.29 91 7.79 77.97 20.83"/>
            <polyline class="cls-4" points="1 37.8 7 31.8 9.5 34.3 17.5 26.3 24.5 33.3 31.38 26.42"/>
            <polygon class="cls-5" points="108 1.79 105 3 106.8 4.79 108 1.79"/>
        </g>
    </g>
</svg>