<svg xmlns="http://www.w3.org/2000/svg" viewBox="0 0 74.1 64.99" style=""><defs><style>.cls-1,.cls-2{fill:#f6f8fa;}.cls-1,.cls-3{fill-rule:evenodd;}.cls-3,.cls-4{fill:none;stroke:#322f91;stroke-linecap:round;stroke-miterlimit:10;stroke-width:2px;}</style></defs><title>Asset 17</title><g id="Layer_2" data-name="Layer 2"><g id="Layer_1-2" data-name="Layer 1"><path class="cls-1 MXFrowBd_0" d="M38.15,22,29.74,23.5a2.88,2.88,0,0,1-3.46-2.12L24.77,13a2.43,2.43,0,0,1,0-.61"></path><path class="cls-2 MXFrowBd_1" d="M38.84,21.03L26.73,12.16"></path><path class="cls-1 MXFrowBd_2" d="M8.05,32.8,5.28,17.92A1.91,1.91,0,0,1,6.82,15.7l19-3.43"></path><path class="cls-2 MXFrowBd_3" d="M38.89,21.39L40.97,32.95"></path><path class="cls-3 MXFrowBd_4" d="M33.91,20,25.5,21.51A2.88,2.88,0,0,1,22,19.39L20.52,11a2.43,2.43,0,0,1,0-.61"></path><path class="cls-4 MXFrowBd_5" d="M34.59,19.04L22.48,10.17"></path><path class="cls-3 MXFrowBd_6" d="M3.81,30.81,1,15.93a1.91,1.91,0,0,1,1.54-2.22l19-3.43"></path><path class="cls-2 MXFrowBd_7" d="M43.16,33.46H54.48a2.18,2.18,0,0,1,2.18,2.18V62.81A2.18,2.18,0,0,1,54.48,65H6.22A2.18,2.18,0,0,1,4,62.81V35.65a2.18,2.18,0,0,1,2.18-2.18H43.16"></path><path class="cls-2 MXFrowBd_8" d="M54.39,33.13L51.67,30.4"></path><path class="cls-2 MXFrowBd_9" d="M29.25,10.06a1.75,1.75,0,0,1,2.42.33l10.5,10.5.54.54"></path><path class="cls-3 MXFrowBd_10" d="M40.37,38.53"></path><path class="cls-4 MXFrowBd_11" d="M34.64,19.4L36.73,30.97"></path><path class="cls-4 MXFrowBd_12" d="M40.88,31.23H52.2a2.18,2.18,0,0,1,2.18,2.18V60.57a2.18,2.18,0,0,1-2.18,2.18H3.94a2.18,2.18,0,0,1-2.18-2.18V33.41a2.18,2.18,0,0,1,2.18-2.18H40.88"></path><path class="cls-2 MXFrowBd_13" d="M51.88,24.8L46.47,26"></path><path class="cls-2 MXFrowBd_14" d="M52.87,23.95L54.73,22.1"></path><path class="cls-2 MXFrowBd_15" d="M54.73,22.1,71.33,5.56a.85.85,0,0,0,0-1.21l-3.2-3.21a.85.85,0,0,0-1.21,0L47.74,20.25a.85.85,0,0,0,0,1.21l3.2,3.21a.85.85,0,0,0,1.21,0l.72-.72"></path><path class="cls-2 MXFrowBd_16" transform="translate(14.65 48.48) rotate(-44.88)" d="M66.01,6.51A0,3.19 0,1,1 66.01,6.51A0,3.19 0,1,1 66.01,6.51"></path><path class="cls-2 MXFrowBd_17" d="M47.65,20.39L46.3,26.02"></path><path class="cls-2 MXFrowBd_18" d="M71.01,4.03L74.1,7.13"></path><path class="cls-2 MXFrowBd_19" d="M74.1,7.13L67.69,13.52"></path><path class="cls-4 MXFrowBd_20" d="M7,35.37,27,53.22a1.76,1.76,0,0,0,2.35,0L49.13,35.47"></path><path class="cls-4 MXFrowBd_21" d="M47.55,26.33"></path><path class="cls-4 MXFrowBd_22" d="M52.11,30.89L49.38,28.17"></path><path class="cls-4 MXFrowBd_23" d="M6.8,57.6L18.98,46.7"></path><path class="cls-4 MXFrowBd_24" d="M28.36,38.79"></path><path class="cls-4 MXFrowBd_25" d="M49.38,57.6L37.19,46.8"></path><path class="cls-4 MXFrowBd_26" d="M48.07,24.91L42.66,26.11"></path><path class="cls-4 MXFrowBd_27" d="M49.06,24.06L50.92,22.21"></path><path class="cls-4 MXFrowBd_28" d="M50.92,22.21,67.52,5.67a.85.85,0,0,0,0-1.21l-3.2-3.21a.85.85,0,0,0-1.21,0L43.93,20.36a.85.85,0,0,0,0,1.21l3.2,3.21a.85.85,0,0,0,1.21,0l.72-.72"></path><path class="cls-4 MXFrowBd_29" transform="translate(13.46 45.82) rotate(-44.88)" d="M62.2,6.62A0,3.19 0,1,1 62.2,6.62A0,3.19 0,1,1 62.2,6.62"></path><path class="cls-4 MXFrowBd_30" d="M43.84,20.5L42.49,26.13"></path><path class="cls-4 MXFrowBd_31" d="M67.2,4.14L70.29,7.25"></path><path class="cls-4 MXFrowBd_32" d="M70.29,7.25L63.88,13.63"></path><path class="cls-4 MXFrowBd_33" d="M43.05,21.84"></path><path class="cls-4 MXFrowBd_34" d="M27,7.82a1.75,1.75,0,0,1,2.42.33l10.5,10.5.54.54"></path></g></g><style data-made-with="vivus-instant">.MXFrowBd_0{stroke-dasharray:23 25;stroke-dashoffset:24;animation:MXFrowBd_draw 1333ms linear 0ms forwards;}.MXFrowBd_1{stroke-dasharray:16 18;stroke-dashoffset:17;animation:MXFrowBd_draw 1333ms linear 19ms forwards;}.MXFrowBd_2{stroke-dasharray:38 40;stroke-dashoffset:39;animation:MXFrowBd_draw 1333ms linear 39ms forwards;}.MXFrowBd_3{stroke-dasharray:12 14;stroke-dashoffset:13;animation:MXFrowBd_draw 1333ms linear 58ms forwards;}.MXFrowBd_4{stroke-dasharray:23 25;stroke-dashoffset:24;animation:MXFrowBd_draw 1333ms linear 78ms forwards;}.MXFrowBd_5{stroke-dasharray:16 18;stroke-dashoffset:17;animation:MXFrowBd_draw 1333ms linear 98ms forwards;}.MXFrowBd_6{stroke-dasharray:38 40;stroke-dashoffset:39;animation:MXFrowBd_draw 1333ms linear 117ms forwards;}.MXFrowBd_7{stroke-dasharray:165 167;stroke-dashoffset:166;animation:MXFrowBd_draw 1333ms linear 137ms forwards;}.MXFrowBd_8{stroke-dasharray:4 6;stroke-dashoffset:5;animation:MXFrowBd_draw 1333ms linear 156ms forwards;}.MXFrowBd_9{stroke-dasharray:19 21;stroke-dashoffset:20;animation:MXFrowBd_draw 1333ms linear 176ms forwards;}.MXFrowBd_10{stroke-dasharray:0 2;stroke-dashoffset:1;animation:MXFrowBd_draw 1333ms linear 196ms forwards;}.MXFrowBd_11{stroke-dasharray:12 14;stroke-dashoffset:13;animation:MXFrowBd_draw 1333ms linear 215ms forwards;}.MXFrowBd_12{stroke-dasharray:165 167;stroke-dashoffset:166;animation:MXFrowBd_draw 1333ms linear 235ms forwards;}.MXFrowBd_13{stroke-dasharray:6 8;stroke-dashoffset:7;animation:MXFrowBd_draw 1333ms linear 254ms forwards;}.MXFrowBd_14{stroke-dasharray:3 5;stroke-dashoffset:4;animation:MXFrowBd_draw 1333ms linear 274ms forwards;}.MXFrowBd_15{stroke-dasharray:66 68;stroke-dashoffset:67;animation:MXFrowBd_draw 1333ms linear 294ms forwards;}.MXFrowBd_16{stroke-dasharray:0 2;stroke-dashoffset:1;animation:MXFrowBd_draw 1333ms linear 313ms forwards;}.MXFrowBd_17{stroke-dasharray:6 8;stroke-dashoffset:7;animation:MXFrowBd_draw 1333ms linear 333ms forwards;}.MXFrowBd_18{stroke-dasharray:5 7;stroke-dashoffset:6;animation:MXFrowBd_draw 1333ms linear 352ms forwards;}.MXFrowBd_19{stroke-dasharray:10 12;stroke-dashoffset:11;animation:MXFrowBd_draw 1333ms linear 372ms forwards;}.MXFrowBd_20{stroke-dasharray:56 58;stroke-dashoffset:57;animation:MXFrowBd_draw 1333ms linear 392ms forwards;}.MXFrowBd_21{stroke-dasharray:0 2;stroke-dashoffset:1;animation:MXFrowBd_draw 1333ms linear 411ms forwards;}.MXFrowBd_22{stroke-dasharray:4 6;stroke-dashoffset:5;animation:MXFrowBd_draw 1333ms linear 431ms forwards;}.MXFrowBd_23{stroke-dasharray:17 19;stroke-dashoffset:18;animation:MXFrowBd_draw 1333ms linear 450ms forwards;}.MXFrowBd_24{stroke-dasharray:0 2;stroke-dashoffset:1;animation:MXFrowBd_draw 1333ms linear 470ms forwards;}.MXFrowBd_25{stroke-dasharray:17 19;stroke-dashoffset:18;animation:MXFrowBd_draw 1333ms linear 490ms forwards;}.MXFrowBd_26{stroke-dasharray:6 8;stroke-dashoffset:7;animation:MXFrowBd_draw 1333ms linear 509ms forwards;}.MXFrowBd_27{stroke-dasharray:3 5;stroke-dashoffset:4;animation:MXFrowBd_draw 1333ms linear 529ms forwards;}.MXFrowBd_28{stroke-dasharray:66 68;stroke-dashoffset:67;animation:MXFrowBd_draw 1333ms linear 549ms forwards;}.MXFrowBd_29{stroke-dasharray:0 2;stroke-dashoffset:1;animation:MXFrowBd_draw 1333ms linear 568ms forwards;}.MXFrowBd_30{stroke-dasharray:6 8;stroke-dashoffset:7;animation:MXFrowBd_draw 1333ms linear 588ms forwards;}.MXFrowBd_31{stroke-dasharray:5 7;stroke-dashoffset:6;animation:MXFrowBd_draw 1333ms linear 607ms forwards;}.MXFrowBd_32{stroke-dasharray:10 12;stroke-dashoffset:11;animation:MXFrowBd_draw 1333ms linear 627ms forwards;}.MXFrowBd_33{stroke-dasharray:0 2;stroke-dashoffset:1;animation:MXFrowBd_draw 1333ms linear 647ms forwards;}.MXFrowBd_34{stroke-dasharray:19 21;stroke-dashoffset:20;animation:MXFrowBd_draw 1333ms linear 666ms forwards;}@keyframes MXFrowBd_draw{100%{stroke-dashoffset:0;}}@keyframes MXFrowBd_fade{0%{stroke-opacity:1;}93.54838709677419%{stroke-opacity:1;}100%{stroke-opacity:0;}}</style></svg>