<svg xmlns="http://www.w3.org/2000/svg" viewBox="0 0 74.1 64.99"><defs><style>.cls-1,.cls-2{fill:#f6f8fa;}.cls-1,.cls-3{fill-rule:evenodd;}.cls-3,.cls-4{fill:none;stroke:#322f91;stroke-linecap:round;stroke-miterlimit:10;stroke-width:2px;}</style></defs><title>Asset 17</title><g id="Layer_2" data-name="Layer 2"><g id="Layer_1-2" data-name="Layer 1"><path class="cls-1" d="M38.15,22,29.74,23.5a2.88,2.88,0,0,1-3.46-2.12L24.77,13a2.43,2.43,0,0,1,0-.61"/><line class="cls-2" x1="38.84" y1="21.03" x2="26.73" y2="12.16"/><path class="cls-1" d="M8.05,32.8,5.28,17.92A1.91,1.91,0,0,1,6.82,15.7l19-3.43"/><line class="cls-2" x1="38.89" y1="21.39" x2="40.97" y2="32.95"/><path class="cls-3" d="M33.91,20,25.5,21.51A2.88,2.88,0,0,1,22,19.39L20.52,11a2.43,2.43,0,0,1,0-.61"/><line class="cls-4" x1="34.59" y1="19.04" x2="22.48" y2="10.17"/><path class="cls-3" d="M3.81,30.81,1,15.93a1.91,1.91,0,0,1,1.54-2.22l19-3.43"/><path class="cls-2" d="M43.16,33.46H54.48a2.18,2.18,0,0,1,2.18,2.18V62.81A2.18,2.18,0,0,1,54.48,65H6.22A2.18,2.18,0,0,1,4,62.81V35.65a2.18,2.18,0,0,1,2.18-2.18H43.16"/><line class="cls-2" x1="54.39" y1="33.13" x2="51.67" y2="30.4"/><path class="cls-2" d="M29.25,10.06a1.75,1.75,0,0,1,2.42.33l10.5,10.5.54.54"/><path class="cls-3" d="M40.37,38.53"/><line class="cls-4" x1="34.64" y1="19.4" x2="36.73" y2="30.97"/><path class="cls-4" d="M40.88,31.23H52.2a2.18,2.18,0,0,1,2.18,2.18V60.57a2.18,2.18,0,0,1-2.18,2.18H3.94a2.18,2.18,0,0,1-2.18-2.18V33.41a2.18,2.18,0,0,1,2.18-2.18H40.88"/><line class="cls-2" x1="51.88" y1="24.8" x2="46.47" y2="26"/><line class="cls-2" x1="52.87" y1="23.95" x2="54.73" y2="22.1"/><path class="cls-2" d="M54.73,22.1,71.33,5.56a.85.85,0,0,0,0-1.21l-3.2-3.21a.85.85,0,0,0-1.21,0L47.74,20.25a.85.85,0,0,0,0,1.21l3.2,3.21a.85.85,0,0,0,1.21,0l.72-.72"/><ellipse class="cls-2" cx="66.01" cy="6.51" ry="3.19" transform="translate(14.65 48.48) rotate(-44.88)"/><line class="cls-2" x1="47.65" y1="20.39" x2="46.3" y2="26.02"/><line class="cls-2" x1="71.01" y1="4.03" x2="74.1" y2="7.13"/><line class="cls-2" x1="74.1" y1="7.13" x2="67.69" y2="13.52"/><path class="cls-4" d="M7,35.37,27,53.22a1.76,1.76,0,0,0,2.35,0L49.13,35.47"/><path class="cls-4" d="M47.55,26.33"/><line class="cls-4" x1="52.11" y1="30.89" x2="49.38" y2="28.17"/><line class="cls-4" x1="6.8" y1="57.6" x2="18.98" y2="46.7"/><path class="cls-4" d="M28.36,38.79"/><line class="cls-4" x1="49.38" y1="57.6" x2="37.19" y2="46.8"/><line class="cls-4" x1="48.07" y1="24.91" x2="42.66" y2="26.11"/><line class="cls-4" x1="49.06" y1="24.06" x2="50.92" y2="22.21"/><path class="cls-4" d="M50.92,22.21,67.52,5.67a.85.85,0,0,0,0-1.21l-3.2-3.21a.85.85,0,0,0-1.21,0L43.93,20.36a.85.85,0,0,0,0,1.21l3.2,3.21a.85.85,0,0,0,1.21,0l.72-.72"/><ellipse class="cls-4" cx="62.2" cy="6.62" ry="3.19" transform="translate(13.46 45.82) rotate(-44.88)"/><line class="cls-4" x1="43.84" y1="20.5" x2="42.49" y2="26.13"/><line class="cls-4" x1="67.2" y1="4.14" x2="70.29" y2="7.25"/><line class="cls-4" x1="70.29" y1="7.25" x2="63.88" y2="13.63"/><path class="cls-4" d="M43.05,21.84"/><path class="cls-4" d="M27,7.82a1.75,1.75,0,0,1,2.42.33l10.5,10.5.54.54"/></g></g></svg>