<svg xmlns="http://www.w3.org/2000/svg" viewBox="0 0 110 35.09">
    <defs>
        <style>
            .cls-1,.cls-3{fill:none;stroke-linecap:round;stroke-linejoin:round;stroke-width:2px;}.cls-1{stroke:#f1f3f7;}.cls-2{fill:#f1f3f7;}.cls-3{stroke:#3f55af;}
        </style>
    </defs>
    <title>Trade Network Image</title>
    <g id="Layer_2" data-name="Layer 2">
        <g id="Layer_1-2" data-name="Layer 1">
            <line class="cls-1" x1="10.21" y1="19.65" x2="103.88" y2="19.65"/>
            <rect class="cls-2" x="21.32" y="4.07" width="31.02" height="31.02"/>
            <rect class="cls-2" x="61.65" y="4.07" width="31.02" height="31.02"/>
            <polyline class="cls-2" points="4 4 12.01 4 12.01 35.02 4 35.02"/>
            <polyline class="cls-2" points="110 35.09 101.99 35.09 101.99 4.07 110 4.07"/>
            <rect class="cls-2" x="71.78" y="17.03" width="10.77" height="10.77"/>
            <path class="cls-2" d="M74,16.47v-2a3.12,3.12,0,0,1,3.12-3.12h0a3.12,3.12,0,0,1,3.12,3.12v2.06"/>
            <rect class="cls-2" x="31.45" y="17.03" width="10.77" height="10.77"/>
            <path class="cls-2" d="M33.72,16.47v-2a3.12,3.12,0,0,1,3.12-3.12h0A3.12,3.12,0,0,1,40,14.48v2.06"/>
            <line class="cls-3" x1="10.08" y1="16.65" x2="18.01" y2="16.65"/>
            <line class="cls-3" x1="50.08" y1="16.65" x2="58.01" y2="16.65"/>
            <line class="cls-3" x1="90.08" y1="16.65" x2="98.01" y2="16.65"/>
            <polyline class="cls-3" points="38.38 32.09 18.32 32.09 18.32 1.06 49.34 1.06 49.34 32.09 42.05 32.09"/>
            <polyline class="cls-3" points="89.68 26.03 89.68 32.09 83.88 32.09"/>
            <polyline class="cls-3" points="71.05 32.09 58.65 32.09 58.65 1.06 89.68 1.06 89.68 21.7"/>
            <line class="cls-3" x1="79.88" y1="32.09" x2="75.17" y2="32.09"/>
            <polyline class="cls-3" points="1 1 9.01 1 9.01 32.02 1 32.02"/>
            <polyline class="cls-3" points="101.99 32.09 98.99 32.09 98.99 1.06 107 1.06"/>
            <line class="cls-3" x1="107" y1="32.09" x2="104.99" y2="32.09"/>
            <rect class="cls-3" x="68.78" y="14.03" width="10.77" height="10.77"/>
            <path class="cls-3" d="M71,13.47v-2a3.12,3.12,0,0,1,3.12-3.12h0a3.12,3.12,0,0,1,3.12,3.12v2.06"/>
            <rect class="cls-3" x="28.45" y="14.03" width="10.77" height="10.77"/>
            <path class="cls-3" d="M30.72,13.47v-2a3.12,3.12,0,0,1,3.12-3.12h0A3.12,3.12,0,0,1,37,11.48v2.06"/>
        </g>
    </g>
</svg>