<svg xmlns="http://www.w3.org/2000/svg" viewBox="0 0 136.99 83.01"><defs><style>.cls-1{fill:#f0f2f6;}.cls-2,.cls-4{fill:none;stroke-linecap:round;stroke-miterlimit:10;stroke-width:2px;}.cls-2{stroke:#4359a4;}.cls-3{fill:#4256a5;}.cls-4{stroke:#4256a5;}</style></defs><title>Asset 26</title><g id="Layer_2" data-name="Layer 2"><g id="Layer_1-2" data-name="Layer 1"><path class="cls-1" d="M64.11,20.78H79.35a.7.7,0,0,1,.61.39l7.49,14.19a.81.81,0,0,1-.61,1.22H64.57"/><path class="cls-1" d="M67.62,20.78H52.85a1.53,1.53,0,0,0-1.33.86L45,33.92a1.77,1.77,0,0,0,1.33,2.67H67.15"/><path class="cls-1" d="M40.28,41.28H55.52a.7.7,0,0,1,.61.39l7.49,14.19A.81.81,0,0,1,63,57.09H40.75"/><path class="cls-1" d="M43.79,41.28H29a1.53,1.53,0,0,0-1.33.86L21.21,54.42a1.77,1.77,0,0,0,1.33,2.67H43.32"/><path class="cls-1" d="M89.7,41.78h15.24a.7.7,0,0,1,.61.39L113,56.37a.81.81,0,0,1-.61,1.22H90.16"/><path class="cls-1" d="M93.21,41.78H78.44a1.53,1.53,0,0,0-1.33.86L70.62,54.92A1.77,1.77,0,0,0,72,57.59H92.74"/><path class="cls-2" d="M76.26,18.28h2.2a.7.7,0,0,1,.61.39l7.49,14.19A.81.81,0,0,1,86,34.09H63.69"/><line class="cls-2" x1="66.74" y1="18.28" x2="69.86" y2="18.28"/><line class="cls-2" x1="63.22" y1="18.28" x2="66.74" y2="18.28"/><path class="cls-2" d="M66.73,18.28H52a1.53,1.53,0,0,0-1.33.86L44.15,31.42a1.77,1.77,0,0,0,1.33,2.67H66.27"/><path class="cls-2" d="M39,38.8h14.9a1.3,1.3,0,0,1,1.13.73l6.77,12.81a1.51,1.51,0,0,1-1.13,2.27H39.5"/><line class="cls-2" x1="28.01" y1="54.61" x2="42.08" y2="54.61"/><path class="cls-2" d="M42.55,38.8H28.13A2.12,2.12,0,0,0,26.27,40L20.51,50.9c-.86,1.63.18,3.71,1.85,3.71h1.75"/><path class="cls-2" d="M88.33,38.8h15.24a.7.7,0,0,1,.61.39l7.49,14.19a.81.81,0,0,1-.61,1.22H88.79"/><line class="cls-2" x1="86.31" y1="54.61" x2="91.37" y2="54.61"/><path class="cls-2" d="M86,54.5"/><path class="cls-2" d="M81.51,54.61"/><line class="cls-2" x1="79.24" y1="54.64" x2="82.74" y2="54.61"/><path class="cls-2" d="M77.1,54.61"/><path class="cls-2" d="M75,54.61"/><path class="cls-2" d="M91.84,38.8H77.08a1.53,1.53,0,0,0-1.33.86L69.25,51.94a1.77,1.77,0,0,0,1.33,2.67H75"/><line class="cls-2" x1="1" y1="74.38" x2="7.06" y2="67.51"/><line class="cls-2" x1="7.06" y1="67.51" x2="13.68" y2="75.01"/><line class="cls-2" x1="111.62" y1="13.01" x2="118.24" y2="20.51"/><line class="cls-2" x1="13.68" y1="75.01" x2="26.99" y2="59.93"/><line class="cls-2" x1="118.69" y1="20.26" x2="128.59" y2="8.75"/><line class="cls-2" x1="95.31" y1="31.35" x2="111.34" y2="13.18"/><line class="cls-3" x1="111.56" y1="12.18" x2="117.73" y2="19.18"/><polygon class="cls-4" points="135.03 2.06 131.72 9.85 127.06 5.91 135.03 2.06"/><line class="cls-1" x1="0.56" y1="82.38" x2="6.62" y2="75.51"/><line class="cls-1" x1="6.62" y1="75.51" x2="13.24" y2="83.01"/><line class="cls-1" x1="111.18" y1="21.01" x2="117.8" y2="28.51"/><line class="cls-1" x1="13.24" y1="83.01" x2="26.55" y2="67.93"/><line class="cls-1" x1="118.25" y1="28.26" x2="128.15" y2="16.75"/><line class="cls-1" x1="94.86" y1="39.35" x2="110.9" y2="21.18"/><line class="cls-1" x1="111.12" y1="20.18" x2="117.29" y2="27.18"/><polygon class="cls-1" points="133.53 11.06 130.22 18.85 125.56 14.91 133.53 11.06"/></g></g></svg>