<svg xmlns="http://www.w3.org/2000/svg" viewBox="0 0 106.24 76.13" style=""><defs><style>.cls-1,.cls-2{fill:#f1f4f9;}.cls-2,.cls-5,.cls-6{fill-rule:evenodd;}.cls-3,.cls-4,.cls-5,.cls-6,.cls-7,.cls-8,.cls-9{fill:none;}.cls-3,.cls-4{stroke:#4259a4;}.cls-10,.cls-3,.cls-4,.cls-5,.cls-6,.cls-9{stroke-linecap:round;}.cls-3,.cls-4,.cls-5,.cls-7,.cls-8{stroke-miterlimit:10;}.cls-10,.cls-3,.cls-5,.cls-6,.cls-7,.cls-9{stroke-width:1.5px;}.cls-4{stroke-width:2px;}.cls-10,.cls-5,.cls-7,.cls-8{stroke:#4158a4;}.cls-6,.cls-9{stroke:#4256a5;}.cls-10,.cls-6,.cls-9{stroke-linejoin:round;}.cls-10{fill:#4158a4;}</style></defs><title>Asset 17</title><g id="Layer_2" data-name="Layer 2"><g id="Layer_1-2" data-name="Layer 1"><path class="cls-1 xDuukIct_0" d="M74.57,72.64c1.81.08-30,.05-41.79.21"></path><path class="cls-1 xDuukIct_1" d="M21.67,71.42a24.74,24.74,0,0,1-8.8-1.31c-1.28-.44-1-3.06-.9-5.19,0-1.2,1.6-1.31,1.56-2.42-.07-2.06-1.33-4.64.17-5.21s4.52-.1,7.79-1c6-1.74,9-4.79,13.86-5.33,15.66-1.73,20.2.09,22.17.85,5.17,2,6.72,4.58,11.37,6.11,2,.67,4.38.41,7.05.57,7,.42,16.53,1.71,15.82,8C91.58,68,92,69.51,91,71s-4.56,1.82-5.9,1.81"></path><path class="cls-1 xDuukIct_2" d="M22.11,70.5A5.58,5.58 0,1,1 33.27,70.5A5.58,5.58 0,1,1 22.11,70.5"></path><path class="cls-1 xDuukIct_3" d="M74.62,70.34A5.58,5.58 0,1,1 85.78,70.34A5.58,5.58 0,1,1 74.62,70.34"></path><path class="cls-2 xDuukIct_4" d="M8.5,17.38,8.62,6.79A2.76,2.76,0,0,1,11.38,4H30.79a2.76,2.76,0,0,1,2.76,2.76v1"></path><path class="cls-2 xDuukIct_5" d="M33.55,7.13V43.54a2.75,2.75,0,0,1-2.76,2.73H11.38a2.75,2.75,0,0,1-2.76-2.73V16.31"></path><path class="cls-3 xDuukIct_6" d="M73.9,71c1.81.08-30,.05-41.79.21"></path><path class="cls-3 xDuukIct_7" d="M21,69.75a24.74,24.74,0,0,1-8.8-1.31c-1.28-.44-1-3.06-.9-5.19,0-1.2,1.6-1.31,1.56-2.42-.07-2.06-1.33-4.64.17-5.21s4.52-.1,7.79-1c6-1.74,9-4.79,13.86-5.33,15.66-1.73,20.2.09,22.17.85,5.17,2,6.72,4.58,11.37,6.11,2,.67,4.38.41,7.05.57,7,.42,16.53,1.71,15.82,8-.18,1.56.29,3.09-.71,4.62s-4.56,1.82-5.9,1.81"></path><path class="cls-3 xDuukIct_8" d="M21.450000000000003,68.83A5.58,5.58 0,1,1 32.61,68.83A5.58,5.58 0,1,1 21.450000000000003,68.83"></path><path class="cls-3 xDuukIct_9" d="M73.95,68.67A5.58,5.58 0,1,1 85.11,68.67A5.58,5.58 0,1,1 73.95,68.67"></path><path class="cls-3 xDuukIct_10" d="M24.53,68.83A2.5,2.45 0,1,1 29.53,68.83A2.5,2.45 0,1,1 24.53,68.83"></path><path class="cls-3 xDuukIct_11" d="M77.15,68.83A2.5,2.45 0,1,1 82.15,68.83A2.5,2.45 0,1,1 77.15,68.83"></path><path class="cls-4 xDuukIct_12" d="M67.87,66.49L70.23,66.49"></path><path class="cls-3 xDuukIct_13" d="M67.87,66.49"></path><path class="cls-3 xDuukIct_14" d="M37.75,66.46L64.57,66.51"></path><path class="cls-3 xDuukIct_15" d="M51.55,58.82c-1.86-.08-2.91-6.18-1.71-6.32,2.34-.28,8.31,1.07,13.22,4.48.23.16.33,2.2-.28,2.2C57.72,59.23,55.94,59,51.55,58.82Z"></path><path class="cls-3 xDuukIct_16" d="M27.38,54.7c4.76-2.34,10.23-2.49,15.78-2.63a2.19,2.19,0,0,1,2.13,1.85c.35,4.27-1.21,4.63-1.56,4.62-7-.15-11.62.67-15.56-.14C27.16,58.19,25.76,55.5,27.38,54.7Z"></path><path class="cls-3 xDuukIct_17" d="M49.29,61.87L52.27,61.9"></path><path class="cls-3 xDuukIct_18" d="M42.44,61.84L45.42,61.87"></path><path class="cls-5 xDuukIct_19" d="M5.81,9.12V3.51A2.76,2.76,0,0,1,8.57.75H28a2.76,2.76,0,0,1,2.76,2.76v1"></path><path class="cls-5 xDuukIct_20" d="M30.74,24.94V40.37A2.7,2.7,0,0,1,28,43H8.57a2.7,2.7,0,0,1-2.76-2.63V14.13"></path><path class="cls-6 xDuukIct_21" d="M23.46,18.87V8.95a1.45,1.45,0,0,1,1.29-1.57H42.58a1.45,1.45,0,0,1,1.29,1.57v10.5A1.45,1.45,0,0,1,42.58,21H27.68"></path><path class="cls-7 xDuukIct_22" d="M6.2,35.96L30.02,35.96"></path><path class="cls-8 xDuukIct_23" d="M17.23,39.43A1.05,1.05 0,1,1 19.330000000000002,39.43A1.05,1.05 0,1,1 17.23,39.43"></path><path class="cls-9 xDuukIct_24" d="M27.34,21.02L24.24,24.72"></path><path class="cls-9 xDuukIct_25" d="M27.2,12.5L40.14,12.5"></path><path class="cls-9 xDuukIct_26" d="M27.2,15.88L40.14,15.88"></path><path class="cls-10 xDuukIct_27" d="M100.96,75.38L105.49,75.38"></path><path class="cls-10 xDuukIct_28" d="M0.75,75.38L97.24,75.38"></path></g></g><style>.xDuukIct_0{stroke-dasharray:42 44;stroke-dashoffset:43;animation:xDuukIct_draw 2000ms linear 0ms forwards;}.xDuukIct_1{stroke-dasharray:119 121;stroke-dashoffset:120;animation:xDuukIct_draw 2000ms linear 35ms forwards;}.xDuukIct_2{stroke-dasharray:36 38;stroke-dashoffset:37;animation:xDuukIct_draw 2000ms linear 71ms forwards;}.xDuukIct_3{stroke-dasharray:36 38;stroke-dashoffset:37;animation:xDuukIct_draw 2000ms linear 107ms forwards;}.xDuukIct_4{stroke-dasharray:40 42;stroke-dashoffset:41;animation:xDuukIct_draw 2000ms linear 142ms forwards;}.xDuukIct_5{stroke-dasharray:92 94;stroke-dashoffset:93;animation:xDuukIct_draw 2000ms linear 178ms forwards;}.xDuukIct_6{stroke-dasharray:42 44;stroke-dashoffset:43;animation:xDuukIct_draw 2000ms linear 214ms forwards;}.xDuukIct_7{stroke-dasharray:120 122;stroke-dashoffset:121;animation:xDuukIct_draw 2000ms linear 250ms forwards;}.xDuukIct_8{stroke-dasharray:36 38;stroke-dashoffset:37;animation:xDuukIct_draw 2000ms linear 285ms forwards;}.xDuukIct_9{stroke-dasharray:36 38;stroke-dashoffset:37;animation:xDuukIct_draw 2000ms linear 321ms forwards;}.xDuukIct_10{stroke-dasharray:16 18;stroke-dashoffset:17;animation:xDuukIct_draw 2000ms linear 357ms forwards;}.xDuukIct_11{stroke-dasharray:16 18;stroke-dashoffset:17;animation:xDuukIct_draw 2000ms linear 392ms forwards;}.xDuukIct_12{stroke-dasharray:3 5;stroke-dashoffset:4;animation:xDuukIct_draw 2000ms linear 428ms forwards;}.xDuukIct_13{stroke-dasharray:0 2;stroke-dashoffset:1;animation:xDuukIct_draw 2000ms linear 464ms forwards;}.xDuukIct_14{stroke-dasharray:27 29;stroke-dashoffset:28;animation:xDuukIct_draw 2000ms linear 500ms forwards;}.xDuukIct_15{stroke-dasharray:36 38;stroke-dashoffset:37;animation:xDuukIct_draw 2000ms linear 535ms forwards;}.xDuukIct_16{stroke-dasharray:45 47;stroke-dashoffset:46;animation:xDuukIct_draw 2000ms linear 571ms forwards;}.xDuukIct_17{stroke-dasharray:3 5;stroke-dashoffset:4;animation:xDuukIct_draw 2000ms linear 607ms forwards;}.xDuukIct_18{stroke-dasharray:3 5;stroke-dashoffset:4;animation:xDuukIct_draw 2000ms linear 642ms forwards;}.xDuukIct_19{stroke-dasharray:35 37;stroke-dashoffset:36;animation:xDuukIct_draw 2000ms linear 678ms forwards;}.xDuukIct_20{stroke-dasharray:70 72;stroke-dashoffset:71;animation:xDuukIct_draw 2000ms linear 714ms forwards;}.xDuukIct_21{stroke-dasharray:60 62;stroke-dashoffset:61;animation:xDuukIct_draw 2000ms linear 750ms forwards;}.xDuukIct_22{stroke-dasharray:24 26;stroke-dashoffset:25;animation:xDuukIct_draw 2000ms linear 785ms forwards;}.xDuukIct_23{stroke-dasharray:7 9;stroke-dashoffset:8;animation:xDuukIct_draw 2000ms linear 821ms forwards;}.xDuukIct_24{stroke-dasharray:5 7;stroke-dashoffset:6;animation:xDuukIct_draw 2000ms linear 857ms forwards;}.xDuukIct_25{stroke-dasharray:13 15;stroke-dashoffset:14;animation:xDuukIct_draw 2000ms linear 892ms forwards;}.xDuukIct_26{stroke-dasharray:13 15;stroke-dashoffset:14;animation:xDuukIct_draw 2000ms linear 928ms forwards;}.xDuukIct_27{stroke-dasharray:5 7;stroke-dashoffset:6;animation:xDuukIct_draw 2000ms linear 964ms forwards;}.xDuukIct_28{stroke-dasharray:97 99;stroke-dashoffset:98;animation:xDuukIct_draw 2000ms linear 1000ms forwards;}@keyframes xDuukIct_draw{100%{stroke-dashoffset:0;}}@keyframes xDuukIct_fade{0%{stroke-opacity:1;}94.44444444444444%{stroke-opacity:1;}100%{stroke-opacity:0;}}</style></svg>