<svg xmlns="http://www.w3.org/2000/svg" viewBox="0 0 79.25 76.08"><defs><style>.cls-1{fill:#f5f5f8;}.cls-2{fill:#322f91;fill-rule:evenodd;}.cls-3{fill:#343191;}.cls-4,.cls-5{fill:none;stroke:#322f91;stroke-miterlimit:10;stroke-width:2px;}.cls-4{stroke-linecap:round;}</style></defs><title>Asset 33</title><g id="Layer_2" data-name="Layer 2"><g id="Layer_1-2" data-name="Layer 1"><path class="cls-1" d="M25.75,40.25a10.75,10.75,0,0,1-21.5,0"/><path class="cls-1" d="M79.25,25.58a10.75,10.75,0,1,1-21.5,0"/><circle class="cls-1" cx="41.25" cy="25.58" r="7"/><path class="cls-2" d="M12.79,50.76A12.89,12.89,0,0,1,0,37.79a1.06,1.06,0,0,1,1-1.06H24.53a1.06,1.06,0,0,1,1,1.06A12.89,12.89,0,0,1,12.79,50.76ZM2.15,38.86a10.76,10.76,0,0,0,10.64,9.77,10.76,10.76,0,0,0,10.63-9.77Z"/><path class="cls-2" d="M45.64,75.55a1.06,1.06,0,0,1-1-1.06,5.09,5.09,0,1,0-10.18,0,1,1,0,1,1-2.1,0,7.19,7.19,0,1,1,14.38,0,1.06,1.06,0,0,1-1,1.06"/><path class="cls-2" d="M24.52,38.86H1a1,1,0,0,1-.9-.52,1.08,1.08,0,0,1,0-1L11.86,15a1.08,1.08,0,0,1,1.85,0L25.45,37.29a1.08,1.08,0,0,1,0,1A1,1,0,0,1,24.52,38.86ZM2.8,36.73h20l-10-18.94Z"/><path class="cls-2" d="M66.21,36.29a12.89,12.89,0,0,1-12.79-13,1.06,1.06,0,0,1,1-1.06H78a1.06,1.06,0,0,1,1,1.06A12.89,12.89,0,0,1,66.21,36.29ZM55.58,24.39a10.67,10.67,0,0,0,21.27,0Z"/><path class="cls-2" d="M78,24.39H54.48a1,1,0,0,1-.9-.52,1.08,1.08,0,0,1,0-1L65.29.56a1.08,1.08,0,0,1,1.85,0L78.88,22.83a1.08,1.08,0,0,1,0,1A1,1,0,0,1,78,24.39ZM56.23,22.26h20l-10-18.94Z"/><path class="cls-2" d="M12.79,16.59a1.05,1.05,0,0,1-1-.79,1.07,1.07,0,0,1,.74-1.31L65.94,0a1.05,1.05,0,0,1,1.28.75,1.06,1.06,0,0,1-.74,1.3L13.06,16.56a1,1,0,0,1-.27,0"/><path class="cls-2" d="M39.54,17.58a1.09,1.09,0,0,1-1-1.13V9.4a1.05,1.05,0,1,1,2.1,0v7.05a1.09,1.09,0,0,1-1,1.13"/><path class="cls-2" d="M39.5,69a1,1,0,0,1-1-.91v-36a1.06,1.06,0,0,1,2.1,0v36a1,1,0,0,1-1,.91"/><path class="cls-3" d="M39,27.93a3.08,3.08,0,0,1-2.23-1.06l.87-.95a2.45,2.45,0,0,0,1.46.78V24.87l-.23,0a2,2,0,0,1-1.88-2,2,2,0,0,1,2-2v-1h1.14v1a2.81,2.81,0,0,1,1.82.91l-.86,1a2,2,0,0,0-1.06-.6v1.67l.23,0c1.27.24,1.88,1,1.88,2a2.18,2.18,0,0,1-2,2.17V29H39Zm.1-4.42V22a.71.71,0,0,0-.7.76C38.43,23.19,38.64,23.39,39.13,23.52ZM40.07,25v1.65a.83.83,0,0,0,.71-.88C40.78,25.36,40.56,25.17,40.07,25Z"/><line class="cls-4" x1="66.77" y1="75.08" x2="75.11" y2="75.08"/><line class="cls-4" x1="58.53" y1="75.08" x2="62.61" y2="75.08"/><line class="cls-4" x1="12.42" y1="75.08" x2="54.01" y2="75.08"/><circle class="cls-5" cx="39.54" cy="24.22" r="7.29"/></g></g></svg>