<svg xmlns="http://www.w3.org/2000/svg" viewBox="0 0 79.25 76.08" style=""><defs><style>.cls-1{fill:#f5f5f8;}.cls-2{fill:#322f91;fill-rule:evenodd;}.cls-3{fill:#343191;}.cls-4,.cls-5{fill:none;stroke:#322f91;stroke-miterlimit:10;stroke-width:2px;}.cls-4{stroke-linecap:round;}</style></defs><title>Asset 33</title><g id="Layer_2" data-name="Layer 2"><g id="Layer_1-2" data-name="Layer 1"><path class="cls-1 Mmlkibfy_0" d="M25.75,40.25a10.75,10.75,0,0,1-21.5,0"></path><path class="cls-1 Mmlkibfy_1" d="M79.25,25.58a10.75,10.75,0,1,1-21.5,0"></path><path class="cls-1 Mmlkibfy_2" d="M34.25,25.58A7,7 0,1,1 48.25,25.58A7,7 0,1,1 34.25,25.58"></path><path class="cls-2 Mmlkibfy_3" d="M12.79,50.76A12.89,12.89,0,0,1,0,37.79a1.06,1.06,0,0,1,1-1.06H24.53a1.06,1.06,0,0,1,1,1.06A12.89,12.89,0,0,1,12.79,50.76ZM2.15,38.86a10.76,10.76,0,0,0,10.64,9.77,10.76,10.76,0,0,0,10.63-9.77Z"></path><path class="cls-2 Mmlkibfy_4" d="M45.64,75.55a1.06,1.06,0,0,1-1-1.06,5.09,5.09,0,1,0-10.18,0,1,1,0,1,1-2.1,0,7.19,7.19,0,1,1,14.38,0,1.06,1.06,0,0,1-1,1.06"></path><path class="cls-2 Mmlkibfy_5" d="M24.52,38.86H1a1,1,0,0,1-.9-.52,1.08,1.08,0,0,1,0-1L11.86,15a1.08,1.08,0,0,1,1.85,0L25.45,37.29a1.08,1.08,0,0,1,0,1A1,1,0,0,1,24.52,38.86ZM2.8,36.73h20l-10-18.94Z"></path><path class="cls-2 Mmlkibfy_6" d="M66.21,36.29a12.89,12.89,0,0,1-12.79-13,1.06,1.06,0,0,1,1-1.06H78a1.06,1.06,0,0,1,1,1.06A12.89,12.89,0,0,1,66.21,36.29ZM55.58,24.39a10.67,10.67,0,0,0,21.27,0Z"></path><path class="cls-2 Mmlkibfy_7" d="M78,24.39H54.48a1,1,0,0,1-.9-.52,1.08,1.08,0,0,1,0-1L65.29.56a1.08,1.08,0,0,1,1.85,0L78.88,22.83a1.08,1.08,0,0,1,0,1A1,1,0,0,1,78,24.39ZM56.23,22.26h20l-10-18.94Z"></path><path class="cls-2 Mmlkibfy_8" d="M12.79,16.59a1.05,1.05,0,0,1-1-.79,1.07,1.07,0,0,1,.74-1.31L65.94,0a1.05,1.05,0,0,1,1.28.75,1.06,1.06,0,0,1-.74,1.3L13.06,16.56a1,1,0,0,1-.27,0"></path><path class="cls-2 Mmlkibfy_9" d="M39.54,17.58a1.09,1.09,0,0,1-1-1.13V9.4a1.05,1.05,0,1,1,2.1,0v7.05a1.09,1.09,0,0,1-1,1.13"></path><path class="cls-2 Mmlkibfy_10" d="M39.5,69a1,1,0,0,1-1-.91v-36a1.06,1.06,0,0,1,2.1,0v36a1,1,0,0,1-1,.91"></path><path class="cls-3 Mmlkibfy_11" d="M39,27.93a3.08,3.08,0,0,1-2.23-1.06l.87-.95a2.45,2.45,0,0,0,1.46.78V24.87l-.23,0a2,2,0,0,1-1.88-2,2,2,0,0,1,2-2v-1h1.14v1a2.81,2.81,0,0,1,1.82.91l-.86,1a2,2,0,0,0-1.06-.6v1.67l.23,0c1.27.24,1.88,1,1.88,2a2.18,2.18,0,0,1-2,2.17V29H39Zm.1-4.42V22a.71.71,0,0,0-.7.76C38.43,23.19,38.64,23.39,39.13,23.52ZM40.07,25v1.65a.83.83,0,0,0,.71-.88C40.78,25.36,40.56,25.17,40.07,25Z"></path><path class="cls-4 Mmlkibfy_12" d="M66.77,75.08L75.11,75.08"></path><path class="cls-4 Mmlkibfy_13" d="M58.53,75.08L62.61,75.08"></path><path class="cls-4 Mmlkibfy_14" d="M12.42,75.08L54.01,75.08"></path><path class="cls-5 Mmlkibfy_15" d="M32.25,24.22A7.29,7.29 0,1,1 46.83,24.22A7.29,7.29 0,1,1 32.25,24.22"></path></g></g><style data-made-with="vivus-instant">.Mmlkibfy_0{stroke-dasharray:34 36;stroke-dashoffset:35;animation:Mmlkibfy_draw 1333ms linear 0ms forwards;}.Mmlkibfy_1{stroke-dasharray:34 36;stroke-dashoffset:35;animation:Mmlkibfy_draw 1333ms linear 44ms forwards;}.Mmlkibfy_2{stroke-dasharray:44 46;stroke-dashoffset:45;animation:Mmlkibfy_draw 1333ms linear 88ms forwards;}.Mmlkibfy_3{stroke-dasharray:121 123;stroke-dashoffset:122;animation:Mmlkibfy_draw 1333ms linear 133ms forwards;}.Mmlkibfy_4{stroke-dasharray:46 48;stroke-dashoffset:47;animation:Mmlkibfy_draw 1333ms linear 177ms forwards;}.Mmlkibfy_5{stroke-dasharray:144 146;stroke-dashoffset:145;animation:Mmlkibfy_draw 1333ms linear 222ms forwards;}.Mmlkibfy_6{stroke-dasharray:121 123;stroke-dashoffset:122;animation:Mmlkibfy_draw 1333ms linear 266ms forwards;}.Mmlkibfy_7{stroke-dasharray:144 146;stroke-dashoffset:145;animation:Mmlkibfy_draw 1333ms linear 311ms forwards;}.Mmlkibfy_8{stroke-dasharray:118 120;stroke-dashoffset:119;animation:Mmlkibfy_draw 1333ms linear 355ms forwards;}.Mmlkibfy_9{stroke-dasharray:21 23;stroke-dashoffset:22;animation:Mmlkibfy_draw 1333ms linear 400ms forwards;}.Mmlkibfy_10{stroke-dasharray:79 81;stroke-dashoffset:80;animation:Mmlkibfy_draw 1333ms linear 444ms forwards;}.Mmlkibfy_11{stroke-dasharray:41 43;stroke-dashoffset:42;animation:Mmlkibfy_draw 1333ms linear 488ms forwards;}.Mmlkibfy_12{stroke-dasharray:9 11;stroke-dashoffset:10;animation:Mmlkibfy_draw 1333ms linear 533ms forwards;}.Mmlkibfy_13{stroke-dasharray:5 7;stroke-dashoffset:6;animation:Mmlkibfy_draw 1333ms linear 577ms forwards;}.Mmlkibfy_14{stroke-dasharray:42 44;stroke-dashoffset:43;animation:Mmlkibfy_draw 1333ms linear 622ms forwards;}.Mmlkibfy_15{stroke-dasharray:46 48;stroke-dashoffset:47;animation:Mmlkibfy_draw 1333ms linear 666ms forwards;}@keyframes Mmlkibfy_draw{100%{stroke-dashoffset:0;}}@keyframes Mmlkibfy_fade{0%{stroke-opacity:1;}93.54838709677419%{stroke-opacity:1;}100%{stroke-opacity:0;}}</style></svg>