<svg xmlns="http://www.w3.org/2000/svg" viewBox="0 0 111 39" style="">
    <defs>
        <style>
            .cls-1{fill:#f1f3f7;}.cls-2,.cls-3{fill:none;stroke-linecap:round;stroke-linejoin:round;stroke-width:2px;}.cls-2{stroke:#3f55af;}.cls-3{stroke:#f1f3f7;}
        </style>
    </defs>
    <title>Marbles Image Animated</title>
    <g id="Layer_2" data-name="Layer 2">
        <g id="Layer_1-2" data-name="Layer 1">
            <path class="cls-1 mqBAqItV_0" transform="translate(-1.67 49.32) rotate(-29.6)"
                  d="M85.32,27.82A7.18,7.18 0,1,1 99.68,27.82A7.18,7.18 0,1,1 85.32,27.82"></path>
            <path class="cls-1 mqBAqItV_1" d="M93.77,23.22a3.31,3.31,0,0,1-1.27,4.61,3.31,3.31,0,0,0-1.27,4.61"></path>
            <path class="cls-1 mqBAqItV_2" transform="translate(-2.33 41.77) rotate(-31.65)"
                  d="M62.49,24.99A10.01,10.01 0,1,1 82.51,24.99A10.01,10.01 0,1,1 62.49,24.99"></path>
            <path class="cls-1 mqBAqItV_3" d="M66,23.45S70,21,72.5,25,79,26.53,79,26.53"></path>
            <path class="cls-1 mqBAqItV_4" d="M28.79,19.5A15.5,15.5 0,1,1 59.79,19.5A15.5,15.5 0,1,1 28.79,19.5"></path>
            <path class="cls-1 mqBAqItV_5" d="M35.79,11s8.5,0,8.5,8.5,8.5,8.5,8.5,8.5"></path>
            <path class="cls-1 mqBAqItV_6" transform="translate(-13.68 37.32) rotate(-68.43)"
                  d="M14.32,28.72A6.28,6.28 0,1,1 26.880000000000003,28.72A6.28,6.28 0,1,1 14.32,28.72"></path>
            <path class="cls-1 mqBAqItV_7" d="M17.48,30.07a2.36,2.36,0,0,1,3.12-1.35,2.36,2.36,0,0,0,3.12-1.35"></path>
            <path class="cls-2 mqBAqItV_8" d="M94.53,29.94a7.18,7.18,0,1,1,1.53-2.22"></path>
            <path class="cls-2 mqBAqItV_9" d="M90.77,20.22a3.31,3.31,0,0,1-1.27,4.61,3.31,3.31,0,0,0-1.27,4.61"></path>
            <path class="cls-2 mqBAqItV_10" d="M76,29.62a10,10,0,1,1,1.73-1.9"></path>
            <path class="cls-2 mqBAqItV_11" d="M63,20.45S67,18,69.5,22,76,23.53,76,23.53"></path>
            <path class="cls-2 mqBAqItV_12" d="M51.14,28.47A15.46,15.46,0,1,1,55.9,21.7"></path>
            <path class="cls-2 mqBAqItV_13" d="M54.65,24.36a15.55,15.55,0,0,1-1.59,2.22"></path>
            <path class="cls-2 mqBAqItV_14" d="M48.21,24.82a9.37,9.37,0,0,0,1.59.18"></path>
            <path class="cls-2 mqBAqItV_15" d="M32.79,8s8.5,0,8.5,8.5c0,4.32,2.19,6.44,4.35,7.49"></path>
            <path class="cls-2 mqBAqItV_16" d="M22,30.25A6.28,6.28,0,1,1,23.44,28"></path>
            <path class="cls-2 mqBAqItV_17" d="M14.48,27.07a2.36,2.36,0,0,1,3.12-1.35,2.36,2.36,0,0,0,3.12-1.35"></path>
            <path class="cls-2 mqBAqItV_18" d="M86.76,35L107,35"></path>
            <path class="cls-2 mqBAqItV_19" d="M82.32,35L84.18,35"></path>
            <path class="cls-2 mqBAqItV_20" d="M1,35L79.51,35"></path>
            <path class="cls-3 mqBAqItV_21" d="M4,38L110,38"></path>
        </g>
    </g>
    <style>.mqBAqItV_0{stroke-dasharray:46 48;stroke-dashoffset:47;animation:mqBAqItV_draw 2666ms ease-in-out 0ms
        forwards;}.mqBAqItV_1{stroke-dasharray:11 13;stroke-dashoffset:12;animation:mqBAqItV_draw 2666ms ease-in-out
        63ms forwards;}.mqBAqItV_2{stroke-dasharray:63 65;stroke-dashoffset:64;animation:mqBAqItV_draw 2666ms
        ease-in-out 126ms forwards;}.mqBAqItV_3{stroke-dasharray:15 17;stroke-dashoffset:16;animation:mqBAqItV_draw
        2666ms ease-in-out 190ms forwards;}.mqBAqItV_4{stroke-dasharray:98
        100;stroke-dashoffset:99;animation:mqBAqItV_draw 2666ms ease-in-out 253ms
        forwards;}.mqBAqItV_5{stroke-dasharray:26 28;stroke-dashoffset:27;animation:mqBAqItV_draw 2666ms ease-in-out
        317ms forwards;}.mqBAqItV_6{stroke-dasharray:40 42;stroke-dashoffset:41;animation:mqBAqItV_draw 2666ms
        ease-in-out 380ms forwards;}.mqBAqItV_7{stroke-dasharray:8 10;stroke-dashoffset:9;animation:mqBAqItV_draw 2666ms
        ease-in-out 444ms forwards;}.mqBAqItV_8{stroke-dasharray:43 45;stroke-dashoffset:44;animation:mqBAqItV_draw
        2666ms ease-in-out 507ms forwards;}.mqBAqItV_9{stroke-dasharray:11
        13;stroke-dashoffset:12;animation:mqBAqItV_draw 2666ms ease-in-out 571ms
        forwards;}.mqBAqItV_10{stroke-dasharray:61 63;stroke-dashoffset:62;animation:mqBAqItV_draw 2666ms ease-in-out
        634ms forwards;}.mqBAqItV_11{stroke-dasharray:15 17;stroke-dashoffset:16;animation:mqBAqItV_draw 2666ms
        ease-in-out 698ms forwards;}.mqBAqItV_12{stroke-dasharray:89 91;stroke-dashoffset:90;animation:mqBAqItV_draw
        2666ms ease-in-out 761ms forwards;}.mqBAqItV_13{stroke-dasharray:3 5;stroke-dashoffset:4;animation:mqBAqItV_draw
        2666ms ease-in-out 825ms forwards;}.mqBAqItV_14{stroke-dasharray:2 4;stroke-dashoffset:3;animation:mqBAqItV_draw
        2666ms ease-in-out 888ms forwards;}.mqBAqItV_15{stroke-dasharray:22
        24;stroke-dashoffset:23;animation:mqBAqItV_draw 2666ms ease-in-out 952ms
        forwards;}.mqBAqItV_16{stroke-dasharray:37 39;stroke-dashoffset:38;animation:mqBAqItV_draw 2666ms ease-in-out
        1015ms forwards;}.mqBAqItV_17{stroke-dasharray:8 10;stroke-dashoffset:9;animation:mqBAqItV_draw 2666ms
        ease-in-out 1079ms forwards;}.mqBAqItV_18{stroke-dasharray:21 23;stroke-dashoffset:22;animation:mqBAqItV_draw
        2666ms ease-in-out 1142ms forwards;}.mqBAqItV_19{stroke-dasharray:2
        4;stroke-dashoffset:3;animation:mqBAqItV_draw 2666ms ease-in-out 1206ms
        forwards;}.mqBAqItV_20{stroke-dasharray:79 81;stroke-dashoffset:80;animation:mqBAqItV_draw 2666ms ease-in-out
        1269ms forwards;}.mqBAqItV_21{stroke-dasharray:106 108;stroke-dashoffset:107;animation:mqBAqItV_draw 2666ms
        ease-in-out 1333ms forwards;}@keyframes mqBAqItV_draw{100%{stroke-dashoffset:0;}}@keyframes
        mqBAqItV_fade{0%{stroke-opacity:1;}95.1219512195122%{stroke-opacity:1;}100%{stroke-opacity:0;}}
    </style>
</svg>