<svg xmlns="http://www.w3.org/2000/svg" viewBox="0 0 111 39">
    <defs>
        <style>
            .cls-1{fill:#f1f3f7;}.cls-2,.cls-3{fill:none;stroke-linecap:round;stroke-linejoin:round;stroke-width:2px;}.cls-2{stroke:#3f55af;}.cls-3{stroke:#f1f3f7;}
        </style>
    </defs>
    <title>Marbles Image</title>
    <g id="Layer_2" data-name="Layer 2">
        <g id="Layer_1-2" data-name="Layer 1">
            <circle class="cls-1" cx="92.5" cy="27.82" r="7.18" transform="translate(-1.67 49.32) rotate(-29.6)"/>
            <path class="cls-1" d="M93.77,23.22a3.31,3.31,0,0,1-1.27,4.61,3.31,3.31,0,0,0-1.27,4.61"/>
            <circle class="cls-1" cx="72.5" cy="24.99" r="10.01" transform="translate(-2.33 41.77) rotate(-31.65)"/>
            <path class="cls-1" d="M66,23.45S70,21,72.5,25,79,26.53,79,26.53"/>
            <circle class="cls-1" cx="44.29" cy="19.5" r="15.5"/>
            <path class="cls-1" d="M35.79,11s8.5,0,8.5,8.5,8.5,8.5,8.5,8.5"/>
            <circle class="cls-1" cx="20.6" cy="28.72" r="6.28" transform="translate(-13.68 37.32) rotate(-68.43)"/>
            <path class="cls-1" d="M17.48,30.07a2.36,2.36,0,0,1,3.12-1.35,2.36,2.36,0,0,0,3.12-1.35"/>
            <path class="cls-2" d="M94.53,29.94a7.18,7.18,0,1,1,1.53-2.22"/>
            <path class="cls-2" d="M90.77,20.22a3.31,3.31,0,0,1-1.27,4.61,3.31,3.31,0,0,0-1.27,4.61"/>
            <path class="cls-2" d="M76,29.62a10,10,0,1,1,1.73-1.9"/>
            <path class="cls-2" d="M63,20.45S67,18,69.5,22,76,23.53,76,23.53"/>
            <path class="cls-2" d="M51.14,28.47A15.46,15.46,0,1,1,55.9,21.7"/>
            <path class="cls-2" d="M54.65,24.36a15.55,15.55,0,0,1-1.59,2.22"/>
            <path class="cls-2" d="M48.21,24.82a9.37,9.37,0,0,0,1.59.18"/>
            <path class="cls-2" d="M32.79,8s8.5,0,8.5,8.5c0,4.32,2.19,6.44,4.35,7.49"/>
            <path class="cls-2" d="M22,30.25A6.28,6.28,0,1,1,23.44,28"/>
            <path class="cls-2" d="M14.48,27.07a2.36,2.36,0,0,1,3.12-1.35,2.36,2.36,0,0,0,3.12-1.35"/>
            <line class="cls-2" x1="86.76" y1="35" x2="107" y2="35"/>
            <line class="cls-2" x1="82.32" y1="35" x2="84.18" y2="35"/>
            <line class="cls-2" x1="1" y1="35" x2="79.51" y2="35"/>
            <line class="cls-3" x1="4" y1="38" x2="110" y2="38"/>
        </g>
    </g>
</svg>